<?xml version="1.0" encoding="utf-8"?>
<!-- Generator: Adobe Illustrator 19.1.0, SVG Export Plug-In . SVG Version: 6.00 Build 0)  -->
<svg version="1.1" id="Layer_1" xmlns="http://www.w3.org/2000/svg" xmlns:xlink="http://www.w3.org/1999/xlink" x="0px" y="0px"
	 viewBox="-359 145 504 504" style="enable-background:new -359 145 504 504;" xml:space="preserve">
<style type="text/css">
	.st0{fill:#FFFFFF;}
	.st1{fill:#CF0A2C;}
</style>
<path class="st0" d="M27.6,610h-274.3c-43.8,0-79.4-35.5-79.4-79.4V257.4c0-43.8,35.5-79.4,79.4-79.4H27.6
	c43.8,0,79.4,35.5,79.4,79.4v273.3C107,574.5,71.5,610,27.6,610L27.6,610z"/>
<path class="st1" d="M-56.2,304.2h90.6v27h-90.6L-56.2,304.2z M-8.2,346.7c-85.1,0-85,85-85,85s-5.8,84.6,85,84.6
	c0,0,75.7,4.3,75.7-58.8h-39c0,0,1.3,23.7-35.5,23.7c0,0-39,2.6-39-38.5H68.6C68.8,442.8,81.3,346.7-8.2,346.7z M26.4,413.2h-72.6
	c0,0,4.7-34.1,39-34.1C26.8,379.2,26.4,413.2,26.4,413.2z M-143.4,391.5c0,0,33.7-2.5,33.7-42.1c0-39.5-27.6-58.9-62.6-58.9h-115.1
	v221.2h115.1c0,0,70.3,2.2,70.3-65.3C-101.9,446.4-98.8,391.5-143.4,391.5L-143.4,391.5z M-236.6,329.8h64.3c0,0,15.6,0,15.6,23.1
	s-9.2,26.4-19.6,26.4h-60.4L-236.6,329.8z M-175.2,472.4h-61.3v-59.1h64.3c0,0,23.4-0.3,23.4,30.4
	C-148.9,469.2-166,472.1-175.2,472.4L-175.2,472.4z"/>
</svg>
