<?xml version="1.0" encoding="utf-8"?>
<!-- Generator: Adobe Illustrator 19.1.0, SVG Export Plug-In . SVG Version: 6.00 Build 0)  -->
<svg version="1.1" id="Layer_1" xmlns="http://www.w3.org/2000/svg" xmlns:xlink="http://www.w3.org/1999/xlink" x="0px" y="0px"
	 viewBox="-301 401 504 504" style="enable-background:new -301 401 504 504;" xml:space="preserve">
<rect x="14.9" y="613.2" width="109.7" height="32.7"/>
<path d="M72.1,665.2C-30.1,665.2-30,767.3-30,767.3s-7,101.6,102.1,101.6c0,0,91,5.2,91-70.7h-46.8c0,0,1.6,28.5-42.7,28.5
	c0,0-46.8,3.1-46.8-46.3h137.7C164.6,780.7,179.6,665.2,72.1,665.2z M113.7,745.1H26.4c0,0,5.7-41,46.8-41
	C114.2,704.2,113.7,745.1,113.7,745.1z"/>
<path d="M-90.3,719c0,0,40.5-3,40.5-50.6c0-47.5-33.2-70.8-75.2-70.8h-138.3v265.8H-125c0,0,84.5,2.6,84.5-78.5
	C-40.5,785-36.8,719-90.3,719z M-202.3,644.9h77.3c0,0,18.8,0,18.8,27.7s-11.1,31.7-23.6,31.7h-72.6V644.9z M-128.6,816.2h-73.7v-71
	h77.3c0,0,28.1-0.4,28.1,36.5C-96.9,812.4-117.5,815.8-128.6,816.2z"/>
</svg>
