<?xml version="1.0" encoding="utf-8"?>
<!-- Generator: Adobe Illustrator 19.1.0, SVG Export Plug-In . SVG Version: 6.00 Build 0)  -->
<svg version="1.1" id="Layer_1" xmlns="http://www.w3.org/2000/svg" xmlns:xlink="http://www.w3.org/1999/xlink" x="0px" y="0px"
	 width="504px" height="504px" viewBox="-216 216 504 504" style="enable-background:new -216 216 504 504;" xml:space="preserve">
<style type="text/css">
	.st0{fill:#FFFFFF;}
	.st1{fill:#CF0A2C;}
</style>
<g>
	<path class="st0" d="M173.1,684h-274.3c-43.8,0-79.4-35.5-79.4-79.4V331.4c0-43.8,35.5-79.4,79.4-79.4h274.3
		c43.8,0,79.4,35.5,79.4,79.4v273.3C252.5,648.5,217,684,173.1,684L173.1,684z"/>
	<path class="st1" d="M89.3,378.2h90.6v27H89.3V378.2z M137.3,420.7c-85.1,0-85,85-85,85s-5.8,84.6,85,84.6c0,0,75.7,4.3,75.7-58.8
		h-39c0,0,1.3,23.7-35.5,23.7c0,0-39,2.6-39-38.5h114.6C214.3,516.8,226.8,420.7,137.3,420.7z M171.9,487.2H99.3
		c0,0,4.7-34.1,39-34.1C172.3,453.2,171.9,487.2,171.9,487.2z M2.1,465.5c0,0,33.7-2.5,33.7-42.1c0-39.5-27.6-58.9-62.6-58.9h-115.1
		v221.2h115.1c0,0,70.3,2.2,70.3-65.3C43.6,520.4,46.7,465.5,2.1,465.5L2.1,465.5z M-91.1,403.8h64.3c0,0,15.6,0,15.6,23.1
		s-9.2,26.4-19.6,26.4h-60.4L-91.1,403.8z M-29.7,546.4H-91v-59.1h64.3c0,0,23.4-0.3,23.4,30.4C-3.4,543.2-20.5,546.1-29.7,546.4
		L-29.7,546.4z"/>
</g>
</svg>
