<?xml version="1.0" encoding="utf-8"?>
<!-- Generator: Adobe Illustrator 19.1.0, SVG Export Plug-In . SVG Version: 6.00 Build 0)  -->
<svg version="1.1" id="Layer_1" xmlns="http://www.w3.org/2000/svg" xmlns:xlink="http://www.w3.org/1999/xlink" x="0px" y="0px"
	 viewBox="-359 145 504 504" style="enable-background:new -359 145 504 504;" xml:space="preserve">
<style type="text/css">
	.st0{fill:#CF0A2C;}
	.st1{fill:#FFFFFF;}
</style>
<path class="st0" d="M32.6,608h-274.3c-43.8,0-79.4-35.5-79.4-79.4V255.4c0-43.8,35.5-79.4,79.4-79.4H32.6
	c43.8,0,79.4,35.5,79.4,79.4v273.3C112,572.5,76.5,608,32.6,608L32.6,608z"/>
<path class="st1" d="M-51.2,302.2h90.6v27h-90.6V302.2z M-3.2,344.7c-85.1,0-85,85-85,85s-5.8,84.6,85,84.6c0,0,75.7,4.3,75.7-58.8
	h-39c0,0,1.3,23.7-35.5,23.7c0,0-39,2.6-39-38.5H73.6C73.8,440.8,86.3,344.7-3.2,344.7z M31.4,411.2h-72.6c0,0,4.7-34.1,39-34.1
	C31.8,377.2,31.4,411.2,31.4,411.2z M-138.4,389.5c0,0,33.7-2.5,33.7-42.1c0-39.5-27.6-58.9-62.6-58.9h-115.1v221.2h115.1
	c0,0,70.3,2.2,70.3-65.3C-96.9,444.4-93.8,389.5-138.4,389.5L-138.4,389.5z M-231.6,327.8h64.3c0,0,15.6,0,15.6,23.1
	s-9.2,26.4-19.6,26.4h-60.4L-231.6,327.8z M-170.2,470.4h-61.3v-59.1h64.3c0,0,23.4-0.3,23.4,30.4
	C-143.9,467.2-161,470.1-170.2,470.4L-170.2,470.4z"/>
</svg>
