<svg xmlns="http://www.w3.org/2000/svg" viewBox="-305 397 504 504" enable-background="new -305 397 504 504"><style type="text/css">.st0{fill:#FFFFFF;}</style><path d="M83.6 865h-274.3c-43.8 0-79.4-35.5-79.4-79.4v-273.2c0-43.8 35.5-79.4 79.4-79.4h274.3c43.8 0 79.4 35.5 79.4 79.4v273.3c0 43.8-35.5 79.3-79.4 79.3z"/><path class="st0" d="M-.2 559.2h90.6v27h-90.6zm48 42.5c-85.1 0-85 85-85 85s-5.8 84.6 85 84.6c0 0 75.7 4.3 75.7-58.8h-39s1.3 23.7-35.5 23.7c0 0-39 2.6-39-38.5h114.6c.2.1 12.7-96-76.8-96zm34.6 66.5h-72.6s4.7-34.1 39-34.1c34 .1 33.6 34.1 33.6 34.1zm-169.8-21.7s33.7-2.5 33.7-42.1c0-39.5-27.6-58.9-62.6-58.9h-115.1v221.2h115.1s70.3 2.2 70.3-65.3c.1 0 3.2-54.9-41.4-54.9zm-93.2-61.7h64.3s15.6 0 15.6 23.1-9.2 26.4-19.6 26.4h-60.4l.1-49.5zm61.4 142.6h-61.3v-59.1h64.3s23.4-.3 23.4 30.4c-.1 25.5-17.2 28.4-26.4 28.7z"/></svg>