<?xml version="1.0" encoding="utf-8"?>
<!-- Generator: Adobe Illustrator 19.1.0, SVG Export Plug-In . SVG Version: 6.00 Build 0)  -->
<svg version="1.1" id="Layer_1" xmlns="http://www.w3.org/2000/svg" xmlns:xlink="http://www.w3.org/1999/xlink" x="0px" y="0px"
	 width="504px" height="504px" viewBox="-216 216 504 504" style="enable-background:new -216 216 504 504;" xml:space="preserve">
<style type="text/css">
	.st0{fill:#CF0A2C;}
	.st1{fill:#FFFFFF;}
</style>
<path class="st0" d="M173.1,684h-274.3c-43.8,0-79.4-35.5-79.4-79.4V331.4c0-43.8,35.5-79.4,79.4-79.4h274.3
	c43.8,0,79.4,35.5,79.4,79.4v273.3C252.5,648.5,217,684,173.1,684L173.1,684z"/>
<path class="st1" d="M88.8,368.8h90.6v27H88.8V368.8z M136.8,411.3c-85.1,0-85,85-85,85s-5.8,84.6,85,84.6c0,0,75.7,4.3,75.7-58.8
	h-39c0,0,1.3,23.7-35.5,23.7c0,0-39,2.6-39-38.5h114.6C213.8,507.4,226.3,411.3,136.8,411.3z M171.4,477.8H98.8
	c0,0,4.7-34.1,39-34.1C171.8,443.8,171.4,477.8,171.4,477.8z M1.6,456.1c0,0,33.7-2.5,33.7-42.1c0-39.5-27.6-58.9-62.6-58.9h-115.1
	v221.2h115.1c0,0,70.3,2.2,70.3-65.3C43.1,511,46.2,456.1,1.6,456.1L1.6,456.1z M-91.6,394.4h64.3c0,0,15.6,0,15.6,23.1
	s-9.2,26.4-19.6,26.4h-60.4L-91.6,394.4z M-30.2,537h-61.3v-59.1h64.3c0,0,23.4-0.3,23.4,30.4C-3.9,533.8-21,536.7-30.2,537
	L-30.2,537z"/>
</svg>
