<?xml version="1.0" encoding="utf-8"?>
<!-- Generator: Adobe Illustrator 19.1.0, SVG Export Plug-In . SVG Version: 6.00 Build 0)  -->
<svg version="1.1" id="Layer_1" xmlns="http://www.w3.org/2000/svg" xmlns:xlink="http://www.w3.org/1999/xlink" x="0px" y="0px"
	 viewBox="-359 145 504 504" style="enable-background:new -359 145 504 504;" xml:space="preserve">
<style type="text/css">
	.st0{fill:#CF0A2C;}
	.st1{fill:#FFFFFF;}
</style>
<path class="st0" d="M31.6,614h-274.3c-43.8,0-79.4-35.5-79.4-79.4V261.4c0-43.8,35.5-79.4,79.4-79.4H31.6
	c43.8,0,79.4,35.5,79.4,79.4v273.3C111,578.5,75.5,614,31.6,614L31.6,614z"/>
<path class="st1" d="M35.7,414.3V521h-58.8v-99.9c0-23.9-8.6-40.3-29.8-40.3c-16.2,0-25.9,11-30.1,21.7c-1.6,3.9-2.1,9.1-2.1,14.4
	V521h-58.7V338.3h58.7v25.4c8.6-12.2,21.9-29.7,53-29.7C6.5,334,35.7,359.4,35.7,414.3z M-174.7,279c0,17.5-12.2,31.5-31.7,31.5
	h-0.4c-18.8,0-31-14-31-31.5c-0.1-17.8,12.4-31.5,31.6-31.5S-175.1,261-174.7,279L-174.7,279z M-237.9,338.3h58.7V521h-58.7V338.3z"
	/>
</svg>
