<?xml version="1.0" encoding="utf-8"?>
<!-- Generator: Adobe Illustrator 19.1.0, SVG Export Plug-In . SVG Version: 6.00 Build 0)  -->
<svg version="1.1" id="Layer_1" xmlns="http://www.w3.org/2000/svg" xmlns:xlink="http://www.w3.org/1999/xlink" x="0px" y="0px"
	 viewBox="-359 145 504 504" style="enable-background:new -359 145 504 504;" xml:space="preserve">
<style type="text/css">
	.st0{fill:#FFFFFF;}
	.st1{fill:#CF0A2C;}
</style>
<path class="st0" d="M28.6,611h-274.3c-43.8,0-79.4-35.5-79.4-79.4V258.4c0-43.8,35.5-79.4,79.4-79.4H28.6
	c43.8,0,79.4,35.5,79.4,79.4v273.3C108,575.5,72.5,611,28.6,611L28.6,611z"/>
<path class="st1" d="M32.7,411.3V518h-58.8v-99.9c0-23.9-8.6-40.3-29.8-40.3c-16.2,0-25.9,11-30.1,21.7c-1.6,3.9-2.1,9.1-2.1,14.4
	V518h-58.7V335.3h58.7v25.4c8.6-12.2,21.9-29.7,53-29.7C3.5,331,32.7,356.4,32.7,411.3z M-177.7,276c0,17.5-12.2,31.5-31.7,31.5
	h-0.4c-18.8,0-31-14-31-31.5c-0.1-17.8,12.4-31.5,31.6-31.5S-178.1,258-177.7,276L-177.7,276z M-240.9,335.3h58.7V518h-58.7V335.3z"
	/>
</svg>
