<svg xmlns="http://www.w3.org/2000/svg" viewBox="-305 397 504 504" enable-background="new -305 397 504 504"><style type="text/css">.st0{fill:#FFFFFF;}</style><path d="M83.6 865h-274.3c-43.8 0-79.4-35.5-79.4-79.4v-273.2c0-43.8 35.5-79.4 79.4-79.4h274.3c43.8 0 79.4 35.5 79.4 79.4v273.3c0 43.8-35.5 79.3-79.4 79.3z"/><path class="st0" d="M87.7 665.3v106.7h-58.8v-99.9c0-23.9-8.6-40.3-29.8-40.3-16.2 0-25.9 11-30.1 21.7-1.6 3.9-2.1 9.1-2.1 14.4v104.1h-58.7v-182.7h58.7v25.4c8.6-12.2 21.9-29.7 53-29.7 38.6 0 67.8 25.4 67.8 80.3zM-122.7 530c0 17.5-12.2 31.5-31.7 31.5h-.4c-18.8 0-31-14-31-31.5-.1-17.8 12.4-31.5 31.6-31.5s31.1 13.5 31.5 31.5zM-185.9 589.3h58.7v182.7h-58.7z"/></svg>