<?xml version="1.0" encoding="utf-8"?>
<!-- Generator: Adobe Illustrator 19.1.0, SVG Export Plug-In . SVG Version: 6.00 Build 0)  -->
<svg version="1.1" id="Layer_1" xmlns="http://www.w3.org/2000/svg" xmlns:xlink="http://www.w3.org/1999/xlink" x="0px" y="0px"
	 viewBox="-301 401 504 504" style="enable-background:new -301 401 504 504;" xml:space="preserve">
<g>
	<path d="M87.5,762.3V869H28.7v-99.9c0-23.9-8.6-40.3-29.8-40.3c-16.2,0-25.9,11-30.1,21.7c-1.6,3.9-2.1,9.1-2.1,14.4V869h-58.7
		V686.3h58.7v25.4c8.6-12.2,21.9-29.7,53-29.7C58.3,682,87.5,707.4,87.5,762.3z"/>
	<path d="M-122.9,627c0,17.5-12.2,31.5-31.7,31.5h-0.4c-18.8,0-31-14-31-31.5c-0.1-17.8,12.4-31.5,31.6-31.5S-123.3,609-122.9,627z"
		/>
	<rect x="-186.1" y="686.3" width="58.7" height="182.7"/>
</g>
</svg>
