<?xml version="1.0" encoding="utf-8"?>
<!-- Generator: Adobe Illustrator 19.1.0, SVG Export Plug-In . SVG Version: 6.00 Build 0)  -->
<svg version="1.1" id="Layer_1" xmlns="http://www.w3.org/2000/svg" xmlns:xlink="http://www.w3.org/1999/xlink" x="0px" y="0px"
	 width="504px" height="504px" viewBox="36 -36 504 504" style="enable-background:new 36 -36 504 504;" xml:space="preserve">
<style type="text/css">
	.st0{fill:#CF0A2C;}
	.st1{fill:#FFFFFF;}
</style>
<path class="st0" d="M425.1,432H150.9c-43.8,0-79.4-35.5-79.4-79.4V79.4C71.5,35.6,107,0,150.9,0h274.3c43.8,0,79.4,35.5,79.4,79.4
	v273.3C504.5,396.5,469,432,425.1,432L425.1,432z"/>
<path class="st1" d="M424.8,246v106.7H366v-99.9c0-23.9-8.6-40.3-29.8-40.3c-16.2,0-25.9,11-30.1,21.7c-1.6,3.9-2.1,9.1-2.1,14.4
	v104.1h-58.7V170H304v25.4c8.6-12.2,21.9-29.7,53-29.7C395.6,165.8,424.8,191.2,424.8,246z M214.4,110.8c0,17.5-12.2,31.5-31.7,31.5
	h-0.4c-18.8,0-31-14-31-31.5c-0.1-17.8,12.4-31.5,31.6-31.5S214,92.8,214.4,110.8L214.4,110.8z M151.2,170h58.7v182.7h-58.7V170z"/>
</svg>
