<?xml version="1.0" encoding="utf-8"?>
<!-- Generator: Adobe Illustrator 19.1.0, SVG Export Plug-In . SVG Version: 6.00 Build 0)  -->
<svg version="1.1" id="Layer_1" xmlns="http://www.w3.org/2000/svg" xmlns:xlink="http://www.w3.org/1999/xlink" x="0px" y="0px"
	 viewBox="-17 109 576 576" style="enable-background:new -17 109 576 576;" xml:space="preserve">
<style type="text/css">
	.st0{fill:#FFFFFF;}
</style>
<g>
	<g>
		<path class="st0" d="M495,417.1c-2.1-2.6-27-34.5-74.1-58.8c-49.1-25.4-63.5-15.6-63.5-15.6c1.1-6.6-5.4-21.8-5.4-21.8
			c-2.2,4.9-15.8,4.4-15.8,4.4c1.7-9.9-10.3-22.9-10.3-22.9c-4.3,7.7-17.4,8.7-17.4,8.7c1.1-9.8-17.4-28.9-17.4-28.9
			c-2.2,18.5-20.1,26.1-20.1,26.1s-18-7.6-20.2-26.1c0,0-18.5,19.1-17.4,28.9c0,0-13.1-1-17.4-8.7c0,0-12,13.1-10.3,22.9
			c0,0-13.6,0.5-15.8-4.4c0,0-6.6,15.2-5.4,21.8c0,0-14.4-9.8-63.5,15.6c-47,24.3-72,56.1-74.1,58.8c0.8-4.5,15.1-77.1,79.9-95.6
			c50-14.3,95.4-27.9,116-51.1c15.1-0.4,25.8-0.1,28.1,0h0.4c2.2-0.1,12.7-0.4,27.6,0c20.7,23.1,66.1,36.8,116.1,51.1
			C479.9,340,494.2,412.6,495,417.1z"/>
		<path class="st0" d="M375.7,357.5c0,0-2.7,14.9-7.5,18.8s-0.4,21.6,12.6,29.6s81.6,47.5,99,115.6
			C479.8,521.4,525.7,412.9,375.7,357.5z"/>
		<path class="st0" d="M371,412.5c0,0-0.8,10.6-6.5,18.2c0,0,72.6,43.8,68.2,122.2c0,0-17.4-85-73.7-113.6c0,0-12.5,16.6-6.8,24.5
			s74.7,72.7,70.9,150.8c0,0,35.3-47.9,27.2-109.4S412.9,459.6,371,412.5z"/>
		<path class="st0" d="M344.9,473.2c0,0-0.5,26.7-14.7,31.6c0,0,68,83.9,51.6,157.9c0,0,26.6-22.9,15.8-84.9
			C386.8,515.7,366.7,491.8,344.9,473.2z"/>
		<path class="st0" d="M327.5,521.4c0,0-2.5,6.1-5.2,7.9c-2.7,1.7-1.1,6.3,0,8.9c1.1,2.6,26.4,57,22.1,144.7
			c0,0,25.1-36.3,20.9-82.8C361,553.7,327.5,521.4,327.5,521.4z"/>
		<path class="st0" d="M306.1,539.7c0,0,6.5,77.9-8.7,120.9c0,0,29.1-18,23.1-67S306.1,539.7,306.1,539.7z"/>
		<path class="st0" d="M171.6,357.5c0,0,2.7,14.9,7.5,18.8s0.4,21.6-12.6,29.6s-81.6,47.5-99,115.6
			C67.5,521.4,21.6,412.9,171.6,357.5z"/>
		<path class="st0" d="M176.2,412.5c0,0,0.8,10.6,6.5,18.2c0,0-72.6,43.8-68.2,122.2c0,0,17.4-85,73.7-113.6c0,0,12.5,16.6,6.8,24.5
			s-74.7,72.7-70.9,150.8c0,0-35.3-47.9-27.2-109.4S134.4,459.6,176.2,412.5z"/>
		<path class="st0" d="M204,473.2c0,0,0.5,26.7,14.7,31.6c0,0-68,83.9-51.6,157.9c0,0-26.6-22.9-15.8-84.9S182.2,491.8,204,473.2z"
			/>
		<path class="st0" d="M220.2,521.4c0,0,2.5,6.1,5.2,7.9c2.7,1.7,1.1,6.3,0,8.9c-1.1,2.6-26.4,57-22.1,144.7
			c0,0-25.1-36.3-20.9-82.8C186.7,553.7,220.2,521.4,220.2,521.4z"/>
		<path class="st0" d="M241.6,539.7c0,0-6.5,77.9,8.7,120.9c0,0-29.1-18-23.1-67C233.2,544.6,241.6,539.7,241.6,539.7z"/>
		<path class="st0" d="M271.9,632.7c-8.5-18.6-11-70.1-11.7-87.7c-0.1-3.2,2.5-5.9,5.7-5.9h6.1h-0.6h6.1c3.2,0,5.8,2.7,5.7,5.9
			C282.6,562.5,280.4,614,271.9,632.7z"/>
		<path class="st0" d="M320.4,351.8c0,0-6.1,5.5-11,6.9c-4.9,1.4-6.1-3.1-6.7,8s2.7,48.4,17.7,61.9c0,0-13.5-31.2-11.2-44.9
			c0,0,2.4-0.4,4.3,1.8c0,0-0.8-11.4,2-13.3c0,0,17.5,5.5,22-12.7c0,0,9.6,3.5,13.3,1.6c0,0-14.1-7.1-16.9-12.5
			c-2.9-5.3-7.1,0.8-9.6,1.8c0,0,4.4,8.1,5.6,9C329.8,359.6,325.6,361.2,320.4,351.8z"/>
		<path class="st0" d="M222.3,356.1l-13.7,17.2c0,0,0.8-8.2-5.3-7.4c-6.1,0.8-6.9,2.5-10-1.2c0,0,11.4-4.3,14.5-8.6
			C210.9,351.8,213.8,349.5,222.3,356.1z"/>
		<path class="st0" d="M226.2,358.5l-14.3,16.3c0,0,5.1-1.8,9.6,0c0,0,4.9,1.3,9.2,1.5s0,11.3,0,11.3s6.5-6.3,6.3,0s-1,22-4.3,36.5
			c0,0,10.4-18.4,10.6-43.3C243.6,355.9,241.1,364.3,226.2,358.5z"/>
		<path class="st0" d="M269.3,497.4c-12.8,0-23.1,4.6-33.2,13.6c-10.1,9-7.9-17.7-7.9-17.7c19.8,15,38.3-6.5,38.3-6.5s0-6.5,0-14.4
			s-8.7-9.3-21.2-15.8s-10.6-15.8-10.6-15.8s1.1,4.4,10.6,4.4s8.7-2.2,13.9,1.9c5.2,4.1,12,5.2,12,5.2h0.9c0,0,6.8-1.1,12-5.2
			s4.3-1.9,13.9-1.9s10.6-4.4,10.6-4.4s1.9,9.3-10.6,15.8s-21.2,7.9-21.2,15.8s0,14.4,0,14.4s18.4,21.5,38.3,6.5
			c0,0,2.2,26.7-7.9,17.7s-20.4-13.6-33.2-13.6H269.3z"/>
		<path class="st0" d="M299.5,479.4c0,0,14.5,0.5,20.3,0s1.2,5.2-2.9,6.8C312.9,487.8,287,479.2,299.5,479.4z"/>
		<path class="st0" d="M205,456.5c0,0,11.5,19.9,27.3,18s19.3-4.1,23.1-2.5s1.7-9.1-21.5-3.1c0,0-12.3,2.4-19-6.9
			S203.3,453.1,205,456.5z"/>
		<path class="st0" d="M210.4,451.9c0,0,0,0,0.1,0.1c1,1.3,10.1,12.5,19.3,12.4c9.7,0,9.9-3,2.4-4c-7.5-1-16-6.9-16-6.9
			S206.1,446.1,210.4,451.9z"/>
		<path class="st0" d="M462.5,325.1c-46.5-30.7-58.3-29.4-98.7-34c-22.3-2.4-37.7-11.9-47-20.1c26.8,1.5,60.2,5.1,86,14.1
			c0,0,10-7.4,17.7-11.5c0.7-0.3,1.1-0.7,1.6-1.1C452.2,284.2,462.5,325.1,462.5,325.1z"/>
		<path class="st0" d="M218.9,271.4c-9.4,8-24.7,17.3-46.5,19.7c-40.4,4.5-52.2,3.3-98.7,34c0,0,11.5-45.1,45.2-54.1
			c0.7,1,1.6,1.9,3,2.6c7.8,4,17.7,11.5,17.7,11.5C163.4,276.8,193.4,273,218.9,271.4z"/>
	</g>
	<g>
		<path class="st0" d="M432.3,203.3c-5,0-8.9,3.9-8.9,8.7c0,0.9,0.2,1.9,0.5,2.7c-0.8,3.4-6.7,21.3-27.9,23.6
			c-23.5,2.5-37.1-3.5-39.7-19.7c-2.6-16.3,35.1-13.5,28.4,7.8c0,0,12.3-4.6,14.5-17.4c2.2-12.8-21.1-22.5-36.6-14.1
			c0,0,6-19.7-2.9-33.5c-19.1,7.3-16.7,31.5-16.7,31.5c-11.6-13.3-33.4-7.3-35.8,5.5c-2.3,12.7,10,18,10,18
			c1.1-22.3,33.6-11.1,25.5,3.3c-6.6,11.7-19.7,17.1-35.7,13.1c-6.2-6.3-14-16.6-14-16.6s2.4-2.3,5.1-0.5c2.6,1.9,6.7-1.1,4.7-5.1
			c-1.9-4-10.5-7.3-14.3-0.5c0,0-4.4-6.1-9.9-16.3c4-6.5,6.8-11.6,7.4-12.8c0.1-0.2,2.3-4.9,2.4-5.1c20.7-47,2.7-63.7,1.2-64.9
			c6.4,13.4-2.3,36.4-2.3,36.4c0.7-13.4-5-23.3-5-23.3c0.7,20.5-4.6,39.7-10.7,54.8c-6.2-15-11.6-34.3-10.9-54.9c0,0-5.6,9.9-5,23.1
			c0,0-8.6-22.9-2.3-36.1c-1.5,1.2-19.2,17.7,1.2,64.4c0.1,0.2,2.3,4.8,2.4,5c0.8,1.3,3.6,6.5,7.6,13.2
			c-5.5,10.7-10.3,17.2-10.3,17.2c-3.8-7-12.4-3.5-14.4,0.6c-2,4,2.2,7,4.8,5.1c2.5-1.9,5.1,0.5,5.1,0.5s-6.7,8.7-12.7,15.1
			c-16.9,5-30.8-0.4-37.7-12.5c-8.1-14.4,24.4-25.6,25.5-3.3c0,0,12.4-5.3,10-18c-2.3-12.8-24.1-18.7-35.8-5.5
			c0,0,2.3-24.2-16.7-31.5c-8.4,13.9-2.4,33.6-2.4,33.6c-15.5-8.4-38.8,1.3-36.6,14.1c2.2,12.8,14.5,17.4,14.5,17.4
			c-6.7-21.3,31.1-24.1,28.4-7.8c-2.6,16.3-16.2,22.3-39.7,19.7s-28.1-24.2-28.1-24.2l-0.3,0.2c0.3-0.8,0.4-1.5,0.4-2.4
			c0-4.8-3.9-8.7-8.9-8.7c-4.9,0-8.8,3.9-8.8,8.7c0,4.5,3.5,8.2,8,8.6c12.8,14.8,11.1,33.4,11.1,33.4s-3.9,7.1-0.9,11.9
			c0.7,1,1.6,1.9,3,2.6c7.8,4,17.7,11.5,17.7,11.5c23.7-8.3,53.7-12,79.2-13.6c8.6-0.6,16.8-0.8,24-1c15.1-0.4,25.8-0.1,28.1,0h0.4
			c2.2-0.1,12.7-0.4,27.6,0c5.4,0.1,11.4,0.3,17.7,0.6c26.8,1.5,60.2,5.1,86,14.1c0,0,10-7.4,17.7-11.5c0.7-0.3,1.1-0.7,1.6-1.1
			c5.4-4.6,0.5-13.4,0.5-13.4s-1.7-18.6,11.1-33.5c4.2-0.6,7.4-4.1,7.4-8.5C441.1,207.2,437.2,203.3,432.3,203.3z M110.6,216.7
			c-1.6,0.7-3.6-0.8-4.4-3.1c-0.8-2.3-0.2-4.7,1.3-5.3c1.6-0.6,3.6,0.8,4.4,3.2C112.8,213.8,112.2,216.2,110.6,216.7z M135,264
			l-1.4,3.6l-7.8-3l-1.8-0.7l3.6-9.5l9.7,3.8L135,264z M198,257.5l-11.5-8.2l8-11.3l11.5,8.2L198,257.5z M253.4,224.8l3.2-6.3
			c0.7,0.9,1.3,1.7,2.2,2.2c0.3,0.3,0.6,0.4,0.8,0.6c4.1,2,9.5-0.8,10.7-3.9c1.4-3.4-1.6-5.7-3.8-4.9c-0.4,0.1-0.7,0.3-0.9,0.5
			c-0.6,0.5-1.1,0.7-1.6,0.8c-1.8,0.4-3.3-0.8-3.3-0.8l8.1-13.3l2.9-4.8l3.1,5.4l7.5,12.7c0,0-1.7,1.3-3.7,0.7
			c-0.1,0-0.3-0.1-0.5-0.3c-0.2,0-0.5-0.2-0.7-0.4c-2.3-2-6.4,0.6-4.8,4.4c1.2,3.2,6.9,6.1,11.3,3.5c0.1,0,0.1,0,0.1,0
			c0.8-0.6,1.7-1.3,2.3-2.4l3.5,6.8l1.7,3.3c0,0-0.1,0-0.3-0.1h-0.1c-1.5-0.3-6.9-1.4-11.6-1.2c-3.4,0.2-6.4,0.8-7.7,2.9h-0.7
			c-1.3-2.1-4.6-2.8-8.1-2.9c-3.7-0.1-7.7,0.5-9.9,0.9c-1.1,0.2-1.8,0.4-1.8,0.4L253.4,224.8z M291.7,247.2c-0.6-2.4-2-4.6-4-6v-0.1
			c-1.7-1.2-3.8-2-6-2c-4.9,0-9,3.6-10,8.1c-0.1-0.6-0.2-1.1-0.2-1.7c0,0.6-0.1,1.1-0.2,1.7c-0.9-4.5-5-8.1-10-8.1
			c-2.7,0-5.2,1-6.9,2.9c-1.5,1.3-2.5,3.2-3,5.2c-0.1-0.6-0.2-1.1-0.2-1.7c0-3.2,1.5-6.1,3.8-7.9c1.7-1.4,3.9-2.3,6.3-2.3
			c5.6,0,10.1,4.5,10.1,10.2c0-5.6,4.6-10.2,10.1-10.2c1.7,0,3.3,0.4,4.6,1v0.1c3.4,1.6,5.6,5.1,5.6,9
			C291.8,246.1,291.8,246.6,291.7,247.2z M345.3,257.5l-7.9-11.3l11.5-8.2l7.9,11.3L345.3,257.5z M415.3,265.4l-5.8,2.3l-1.2-3.2
			l-2.4-6.2l9.7-3.8l3.7,9.5L415.3,265.4z M436.8,213.6c-0.8,2.4-2.8,3.8-4.4,3.1c-1.5-0.6-2.2-2.9-1.3-5.2c0.8-2.4,2.8-3.8,4.4-3.2
			C437.1,208.9,437.7,211.3,436.8,213.6z"/>
	</g>
</g>
</svg>
