<?xml version="1.0" encoding="utf-8"?>
<!-- Generator: Adobe Illustrator 19.1.0, SVG Export Plug-In . SVG Version: 6.00 Build 0)  -->
<svg version="1.1" id="Layer_1" xmlns="http://www.w3.org/2000/svg" xmlns:xlink="http://www.w3.org/1999/xlink" x="0px" y="0px"
	 viewBox="-359 145 504 504" style="enable-background:new -359 145 504 504;" xml:space="preserve">
<style type="text/css">
	.st0{fill:#FFFFFF;}
	.st1{fill:#CF0A2C;}
</style>
<path class="st0" d="M31.2,618.1h-274.3c-43.8,0-79.4-35.5-79.4-79.4V265.5c0-43.8,35.5-79.4,79.4-79.4H31.2
	c43.8,0,79.4,35.5,79.4,79.4v273.3C110.6,582.6,75.1,618.1,31.2,618.1L31.2,618.1z"/>
<path class="st1" d="M39.6,319.5v176c0,2.5-0.3,5-1.1,7.5l-84-84L39.6,319.5z M18.1,523.4c-2.5,0.8-5,1.1-7.5,1.1h-232.1
	c-2.5,0-5-0.3-7.5-1.1l82.6-82.3l40.9,47.8l40.9-47.8L18.1,523.4L18.1,523.4z M-165.4,419l-84,84c-0.8-2.5-1.1-5-1.1-7.5v-176
	L-165.4,419z M22.5,294.9l-127.9,149.2l-128-149.2c3.9-1.7,7.7-2.5,11.9-2.5H10.6C14.7,292.4,18.9,293.3,22.5,294.9z"/>
</svg>
