<?xml version="1.0" encoding="utf-8"?>
<!-- Generator: Adobe Illustrator 19.1.0, SVG Export Plug-In . SVG Version: 6.00 Build 0)  -->
<svg version="1.1" id="Layer_1" xmlns="http://www.w3.org/2000/svg" xmlns:xlink="http://www.w3.org/1999/xlink" x="0px" y="0px"
	 viewBox="-301 401 504 504" style="enable-background:new -301 401 504 504;" xml:space="preserve">
<path d="M167,673v150c0,25.4-23.3,46-52,46h-328c-28.7,0-52-20.6-52-46V673c0-13.4,6.5-25.5,16.9-33.9l175.9,125.3
	c14.2,7.9,32.2,7.9,46.4,0l175.9-125.3C160.5,647.5,167,659.6,167,673z"/>
<path d="M130.4,619.5L-28.1,733.1c-12.7,7.2-29,7.2-41.8,0l-158.5-113.6c8.3-6.8,19.4-10.9,31.6-10.9H98.8
	C110.9,608.6,122,612.7,130.4,619.5z"/>
</svg>
