<svg xmlns="http://www.w3.org/2000/svg" viewBox="-959 541 504 504" enable-background="new -959 541 504 504"><style type="text/css">.st0{fill:#FFFFFF;}</style><path d="M-572.4 1009h-274.3c-43.8 0-79.4-35.5-79.4-79.4v-273.2c0-43.8 35.5-79.4 79.4-79.4h274.3c43.8 0 79.4 35.5 79.4 79.4v273.3c0 43.8-35.5 79.3-79.4 79.3z"/><path class="st0" d="M-564 710.4v176c0 2.5-.3 5-1.1 7.5l-84-84 85.1-99.5zm-21.5 203.9c-2.5.8-5 1.1-7.5 1.1h-232.1c-2.5 0-5-.3-7.5-1.1l82.6-82.3 40.9 47.8 40.9-47.8 82.7 82.3zm-183.5-104.4l-84 84c-.8-2.5-1.1-5-1.1-7.5v-176l85.1 99.5zm187.9-124.1l-127.9 149.2-128-149.2c3.9-1.7 7.7-2.5 11.9-2.5h232.1c4.1 0 8.3.9 11.9 2.5z"/></svg>