<?xml version="1.0" encoding="utf-8"?>
<!-- Generator: Adobe Illustrator 19.1.0, SVG Export Plug-In . SVG Version: 6.00 Build 0)  -->
<svg version="1.1" id="Layer_1" xmlns="http://www.w3.org/2000/svg" xmlns:xlink="http://www.w3.org/1999/xlink" x="0px" y="0px"
	 viewBox="-959 541 504 504" style="enable-background:new -959 541 504 504;" xml:space="preserve">
<style type="text/css">
	.st0{fill:#FFFFFF;}
</style>
<path d="M-572.4,1009h-274.3c-43.8,0-79.4-35.5-79.4-79.4V656.4c0-43.8,35.5-79.4,79.4-79.4h274.3c43.8,0,79.4,35.5,79.4,79.4v273.3
	C-493,973.5-528.5,1009-572.4,1009z"/>
<g>
	<path class="st0" d="M-564,710.4v176c0,2.5-0.3,5-1.1,7.5l-84-84L-564,710.4z"/>
	<path class="st0" d="M-585.5,914.3c-2.5,0.8-5,1.1-7.5,1.1h-232.1c-2.5,0-5-0.3-7.5-1.1l82.6-82.3l40.9,47.8l40.9-47.8
		L-585.5,914.3z"/>
	<path class="st0" d="M-769,809.9l-84,84c-0.8-2.5-1.1-5-1.1-7.5v-176L-769,809.9z"/>
	<path class="st0" d="M-581.1,685.8L-709,835L-837,685.8c3.9-1.7,7.7-2.5,11.9-2.5H-593C-588.9,683.3-584.7,684.2-581.1,685.8z"/>
</g>
</svg>
