<?xml version="1.0" encoding="utf-8"?>
<!-- Generator: Adobe Illustrator 19.1.0, SVG Export Plug-In . SVG Version: 6.00 Build 0)  -->
<svg version="1.1" id="Layer_1" xmlns="http://www.w3.org/2000/svg" xmlns:xlink="http://www.w3.org/1999/xlink" x="0px" y="0px"
	 width="504px" height="504px" viewBox="-216 216 504 504" style="enable-background:new -216 216 504 504;" xml:space="preserve">
<style type="text/css">
	.st0{fill:#CF0A2C;}
	.st1{fill:#FFFFFF;}
</style>
<path class="st0" d="M173.1,684h-274.3c-43.8,0-79.4-35.5-79.4-79.4V331.4c0-43.8,35.5-79.4,79.4-79.4h274.3
	c43.8,0,79.4,35.5,79.4,79.4v273.3C252.5,648.5,217,684,173.1,684L173.1,684z"/>
<path class="st1" d="M181.1,379v176c0,2.5-0.3,5-1.1,7.5l-84-84L181.1,379z M159.6,583c-2.5,0.8-5,1.1-7.5,1.1H-80.1
	c-2.5,0-5-0.3-7.5-1.1l82.6-82.3L36,548.5l40.9-47.8L159.6,583L159.6,583z M-23.9,478.5l-84,84c-0.8-2.5-1.1-5-1.1-7.5V379
	L-23.9,478.5z M163.9,354.5L36.1,503.7l-128-149.2c3.9-1.7,7.7-2.5,11.9-2.5h232.1C156.1,352,160.4,352.8,163.9,354.5z"/>
</svg>
