<?xml version="1.0" encoding="utf-8"?>
<!-- Generator: Adobe Illustrator 19.1.0, SVG Export Plug-In . SVG Version: 6.00 Build 0)  -->
<svg version="1.1" id="Layer_1" xmlns="http://www.w3.org/2000/svg" xmlns:xlink="http://www.w3.org/1999/xlink" x="0px" y="0px"
	 viewBox="-305 397 504 504" style="enable-background:new -305 397 504 504;" xml:space="preserve">
<style type="text/css">
	.st0{fill:#FFFFFF;}
</style>
<path d="M83.6,865h-274.3c-43.8,0-79.4-35.5-79.4-79.4V512.4c0-43.8,35.5-79.4,79.4-79.4H83.6c43.8,0,79.4,35.5,79.4,79.4v273.3
	C163,829.5,127.5,865,83.6,865z"/>
<g>
	<g>
		<path class="st0" d="M76.7,504c-1.5-1-3.3-1.5-5-1.5c-1.8,0-3.6,0.5-5.1,1.5L-208,687.1c-2.8,1.9-4.4,5.2-4,8.6
			c0.4,3.4,2.6,6.3,5.7,7.6l71.6,28.7l33.7,59c1.6,2.8,4.6,4.6,7.8,4.6h0.1c3.2,0,6.2-1.7,7.9-4.5l19-31.7l88.8,35.5
			c1.1,0.4,2.2,0.7,3.4,0.7c1.6,0,3.1-0.4,4.5-1.2c2.4-1.3,4.1-3.7,4.6-6.5l45.8-274.7C81.4,509.6,79.8,505.9,76.7,504L76.7,504z
			 M-183.4,692.7L28.8,551.3l-154.2,165.1c-0.8-0.5-1.6-1.1-2.5-1.5L-183.4,692.7z M-118.8,722.9
			C-118.8,722.8-118.8,722.8-118.8,722.9L54.6,537.1L-93.3,767.5L-118.8,722.9z M18.8,773.6l-78.2-31.3c-1.8-0.7-3.8-1-5.7-1.1
			L55.3,554.5L18.8,773.6z M18.8,773.6"/>
	</g>
</g>
</svg>
