<?xml version="1.0" encoding="utf-8"?>
<!-- Generator: Adobe Illustrator 19.1.0, SVG Export Plug-In . SVG Version: 6.00 Build 0)  -->
<svg version="1.1" id="Layer_1" xmlns="http://www.w3.org/2000/svg" xmlns:xlink="http://www.w3.org/1999/xlink" x="0px" y="0px"
	 viewBox="-359 145 504 504" style="enable-background:new -359 145 504 504;" xml:space="preserve">
<style type="text/css">
	.st0{fill:#CF0A2C;}
	.st1{fill:#FFFFFF;}
</style>
<path class="st0" d="M32.2,609.1h-274.3c-43.8,0-79.4-35.5-79.4-79.4V256.5c0-43.8,35.5-79.4,79.4-79.4H32.2
	c43.8,0,79.4,35.5,79.4,79.4v273.3C111.6,573.6,76.1,609.1,32.2,609.1L32.2,609.1z"/>
<path class="st1" d="M40.6,310.5v176c0,2.5-0.3,5-1.1,7.5l-84-84L40.6,310.5z M19.1,514.4c-2.5,0.8-5,1.1-7.5,1.1h-232.1
	c-2.5,0-5-0.3-7.5-1.1l82.6-82.3l40.9,47.8l40.9-47.8L19.1,514.4L19.1,514.4z M-164.4,410l-84,84c-0.8-2.5-1.1-5-1.1-7.5v-176
	L-164.4,410z M23.5,285.9l-127.9,149.2l-128-149.2c3.9-1.7,7.7-2.5,11.9-2.5H11.6C15.7,283.4,19.9,284.3,23.5,285.9z"/>
</svg>
