<svg xmlns="http://www.w3.org/2000/svg" xmlns:xlink="http://www.w3.org/1999/xlink" viewBox="0 0 865.4 882.2" enable-background="new 0 0 865.4 882.2"><style type="text/css">.st0{clip-path:url(#SVGID_2_);} .st1{fill:#D1D3D4;stroke:#231F20;stroke-width:2;stroke-miterlimit:10;} .st2{fill:#A7A9AC;stroke:#231F20;stroke-width:2;stroke-miterlimit:10;} .st3{fill:#231F20;stroke:#231F20;stroke-width:2;stroke-miterlimit:10;} .st4{fill:none;stroke:#231F20;stroke-width:2;stroke-miterlimit:10;} .st5{fill:#FFFFFF;stroke:#231F20;stroke-width:2;stroke-miterlimit:10;} .st6{fill:#808285;stroke:#231F20;stroke-width:2;stroke-miterlimit:10;} .st7{fill:#F1F2F2;stroke:#231F20;stroke-width:2;stroke-miterlimit:10;}</style><defs><circle id="SVGID_1_" cx="432.7" cy="432.7" r="432.7"/></defs><use xlink:href="#SVGID_1_" overflow="visible" fill="#E6E7E8"/><clipPath id="SVGID_2_"><use xlink:href="#SVGID_1_" overflow="visible"/></clipPath><g class="st0"><path class="st1" d="M329.6 603.1c-25.2-18-87.7-31.6-98.5-27.9-18.6 6.4-27.7 4.1-47.1-6.6-3.3-1.8-6.6-2.1-10.1-.9-12.1 4-23.5 23.9-26.8 31.2l-.9-.4c19.6 53.7 20 89.6 19.2 102.6 21.6-2.9 57.8-4 91.9 11.8 36.1 16.7 64.8 19.1 79.6 18.9h.5v-119.6c-.1-.8-.6-4-7.8-9.1zm-81.1 50.5c-6.4 1.1-12.2 2.1-17.6 3-22.6 3.5-37 4.1-47.7-.5-5.9-2.5-10.7-6.5-15.2-12.5-14.6-19.4 8.4-35.8 8.4-35.8s-8.3-2-14.6-11.9c-3.4-5.3-1.7-12.4 3.8-15.7 5.4-3.2 12.9-4.9 21.3 1.7 15.9 12.6 24.5 8 34.5 3.3 9.9-4.6 104.1 33.2 104.1 33.2s-29.3 26.6-77 35.2zm-49.1-338.9c-11.1-5.9-41.5-5.7-58.9-5.1-2.9 7.8-5.1 14.9-5.4 24.9 31.8-14 87.2 15.2 88.6 16-.3-1.2-8.7-27.6-24.3-35.8zm10 74.2l-1.3.3 1.3-.3c3.7-9.6 6.8-18.1 9.3-24.7l-9.3 24.7zm-5.1-20.7c-2.7 0-4.9 2.2-4.9 4.9s2.2 4.9 4.9 4.9 4.9-2.2 4.9-4.9c-.1-2.8-2.3-4.9-4.9-4.9zm34.9 151.2c-8.3 0-15 1.4-15 3.1 0 1.7 6.7 3.1 15 3.1s15-1.4 15-3.1c0-1.7-6.7-3.1-15-3.1zm150.8-149.9c-2.4 0-4.4 2-4.4 4.4 0 2.4 2 4.4 4.4 4.4 2.4 0 4.4-2 4.4-4.4 0-2.4-2-4.4-4.4-4.4zm28.7-67.6c-31-11.9-128.2 1.3-128.2 1.3-13.3 21.2 11.1 28.7 11.1 28.7s47.3-1.3 75.2-8.8c27.5-7.4 96.7 17.4 98.6 18.1-1.2-1.2-26.4-27.7-56.7-39.3zm301 75.6c-3.3-4.4-7.4-8.4-12.3-11.8-23.2-15.9-44.4 11.3-44.4 11.3s-2.3.7-5.9 2.1c-11 4.4-34 15.4-40.5 32.3-.2.4-.4.8-.5 1.1-.1.5-.2 1-.3 1.4l-35.6 170.7c.2-1.4.5-3.3.8-5.7.1-1.1.3-2.3.5-3.6.1-.4.1-.7.1-1.1.2-1.6.4-3.4.6-5.3.2-1.7.4-3.5.6-5.3.1-1 .2-2 .3-3.1.1-.7.2-1.4.2-2.2.1-.7.2-1.5.2-2.2.2-1.5.3-3 .4-4.5.1-.7.2-1.5.2-2.3.2-2.4.4-4.8.7-7.4.1-.9.2-1.8.2-2.8l.2-2.3.3-4.2c.2-3 .4-6.2.7-9.4l.2-3 .3-6c.1-1.3.2-2.7.2-4 .1-.8.1-1.6.1-2.5l.3-6.6c.1-2.6.2-5.3.3-8l.1-3.8.1-4 .1-4.9c.1-5.1.1-10.4.1-15.8 0-1.7 0-3.3-.1-5v-.5c0-1.7-.1-3.4-.1-5.2l-.1-4.7c-.1-2.5-.2-5-.3-7.6-.1-2.7-.2-5.4-.4-8.2l-.3-4.8-.3-5.2c-.2-3.5-.5-7-.9-10.5-.1-1.4-.2-2.8-.4-4.2l-.5-5.1v-.1l-.6-4.9c-.6-5-1.3-10.1-2.1-15.1-.2-1.7-.5-3.3-.8-5-.1-.3-.1-.6-.1-.8-.2-1.4-.5-2.8-.7-4.1l-.9-4.9c-.1-.6-.2-1.2-.4-1.9-.3-1.8-.7-3.5-1.1-5.3-.9-3.9-1.8-7.7-2.7-11.5-.2-1-.5-1.9-.7-2.8-2.3-8.7-5-17.1-8.2-25.1-.4-1.2-.9-2.4-1.4-3.5-.5-1.3-1.1-2.7-1.7-4-.4-1-.9-2-1.3-2.9-.6-1.4-1.3-2.8-1.9-4.1-.6-1.2-1.1-2.3-1.8-3.5l-1.4-2.7c-.5-.9-1-1.9-1.6-2.8-.5-.9-1-1.8-1.5-2.6-.6-1-1.2-2-1.8-2.9-.4-.7-.8-1.3-1.2-1.9-1.7-2.7-3.5-5.2-5.4-7.7l-1.5-2-1.8-2.2-1.2-1.5c-.7-.9-1.5-1.8-2.4-2.6l-1.1-1.2c-3.6-3.8-7.5-7.3-11.6-10.5l1.5-84.9c-8.8-2.9-191.1-52-339.3-13.3 0 0-31.6 70.8-36.9 105.9-2.7 18.1-7 28.6-10.5 38 17.4-.6 47.8-.8 58.9 5.1 15.6 8.2 24 34.7 24.3 35.8-1.4-.7-56.8-30-88.6-16v4.1c.7 25.2 13.3 61.7 4.6 84.2-8.6 22.5-39.8 67.7-3.3 151.2 1.9 4.3 3.7 8.5 5.3 12.7 5.5-9.5 15.9-24.6 28.9-29 6.4-2.1 12.6-1.5 18.5 1.7 18.2 9.9 24 10.8 38.6 5.8 16-5.5 82.2 10.8 108.1 29.3 8.2 5.8 12.1 11.6 12.1 17.7v166.4c-3.9.8-7.7 1.6-11.4 2.3-.6.1-1.2.2-1.9.4l-1.1.2c-.9.2-1.7.3-2.5.5-2.4.5-4.7.9-6.9 1.4l-3.3.6c-10.8 2.1-19.3 3.7-24.3 4.5l-1.1.2c-2.4.5-3.7.7-3.7.7h-.2c-.5 0-2.2.2-4.7.3-.4 0-.7 0-1.1.1h-.6c-.6 0-1.2.1-1.9.1l-2.1.1h-1.7c-.5 0-1 0-1.5.1h-18.1c-.8 0-1.6 0-2.4-.1h-1.5c-.5 0-1 0-1.5-.1-3.1-.1-6.3-.3-9.6-.5-1.7-.1-3.5-.2-5.3-.4-1.8-.1-3.6-.3-5.4-.5 30.7 3.2 58.4.7 58.4.7s1.3-.2 3.7-.7l1.1-.2c5-.9 13.5-2.4 24.3-4.5l3.3-.6c2.2-.4 4.5-.9 6.9-1.4l2.5-.5 1.1-.2 1.8-.4c3.7-.7 7.5-1.5 11.4-2.3 8.1-1.7 16.7-3.5 25.5-5.5l4.4-1 9.6-2.2 8.1-1.9c.3-.1.6-.2.9-.2 2.7-.6 5.3-1.3 8-2 2.9-.7 5.8-1.4 8.7-2.2.1 0 .1 0 .2-.1 3.6-.9 7.2-1.8 10.8-2.8 9-2.4 17.7-4.9 25.8-7.5.8-.2 1.6-.5 2.4-.8 3.4-1.1 6.7-2.1 9.8-3.3 1.2-.4 2.4-.8 3.5-1.3.1 0 .2-.1.4-.1l3-1.1c4.7-1.8 9-3.5 12.8-5.3.7-.3 1.3-.6 2-1 5.2-2.5 9.3-5 12.3-7.5 31.2-26.5 74.9-62.3 82.9-100.8l24.5-89.5s31.2 34.5 67 11.9c0 0 23.2-23.2 35.2-55 11.9-31.8 14.6-63.7 21.9-75.6 5.4-8.5 3.8-29.5-8.6-45.7zm-510.2 11.4l-1.4.3-2.4.5-1 .2c-.7.1-1.5.3-2.3.4-.7.1-1.5.2-2.2.4l-2.2.3c-12.9 1.9-26.7 2.6-32.5 1.1-11.9-3.1-25.7-29.2 5.7-36.3 8.6-1.9 16.8-1.7 24.1-.4 9.7 1.8 17.8 5.5 23.6 8.8-2.6 6.6-5.8 15.1-9.4 24.7zm29.7 136.7c-8.3 0-15-1.4-15-3.1 0-1.7 6.7-3.1 15-3.1s15 1.4 15 3.1c0 1.7-6.7 3.1-15 3.1zm168.4-137.4c-1.5.1-3.1.2-4.8.3-10.4.7-18.2 2.8-26.1 3.7-13.6 1.7-27.6-.2-56.2-19.2 0 0 22.6-13.6 51.1-13.5 13 .1 27.3 3 41.1 11.3 6.8 4.1 13.6 9.6 20 16.7.1.1-1.4-.6-25.1.7zm-30.9-65.1c-27.9 7.5-75.2 8.8-75.2 8.8s-24.3-7.5-11.1-28.7c0 0 97.3-13.3 128.2-1.3 30.3 11.7 55.5 38.1 56.6 39.3-1.8-.7-71-25.5-98.5-18.1z"/><path class="st2" d="M657 686.1c-56.4 75.6-297.1 195-297.1 195s-45.1-26.5-54.4-42.4c-5.7-9.8-9.4-26.3-11.4-37.4-1.2-6.9-1.8-11.7-1.8-11.7s1.3-.2 3.7-.7c.3-.1.7-.1 1.1-.2 5-.9 13.5-2.4 24.3-4.5l3.3-.6c2.2-.4 4.5-.9 6.9-1.4l2.5-.5 1.1-.2c.6-.1 1.2-.3 1.9-.4 3.7-.7 7.5-1.5 11.4-2.3 8.1-1.7 16.7-3.5 25.5-5.5l4.4-1 9.6-2.2 8.1-1.9c.3-.1.6-.2.9-.2 2.7-.6 5.3-1.3 8-2 2.9-.7 5.8-1.4 8.7-2.2.1 0 .1 0 .2-.1l10.8-2.8c9-2.4 17.7-4.9 25.8-7.5.8-.2 1.6-.5 2.4-.8 3.4-1.1 6.7-2.1 9.8-3.3 1.2-.4 2.4-.8 3.5-1.2.1 0 .2-.1.4-.1l3-1.1c4.7-1.8 9-3.5 12.8-5.3.7-.3 1.4-.6 2-1 5.2-2.5 9.3-5 12.3-7.5 31.2-26.5 74.9-62.3 82.9-100.8l24.5-89.5s31.2 34.5 67 11.9c10.4 123.4 42.3 55.8-14.1 131.4z"/><path class="st3" d="M719.7 377.5c-3.3-4.4-7.4-8.4-12.3-11.8-23.2-15.9-44.4 11.3-44.4 11.3s-2.3.7-5.9 2.1c-11 4.4-34 15.4-40.5 32.3-.2.4-.4.8-.5 1.1-.1.5-.2 1-.3 1.4l-35.6 170.7c.2-1.4.5-3.3.8-5.7.2-1.1.3-2.3.5-3.6.1-.4.1-.7.1-1.1.2-1.6.4-3.4.6-5.3.2-1.7.4-3.5.6-5.3.1-1 .2-2 .3-3.1.1-.7.2-1.4.2-2.2.1-.7.2-1.5.2-2.2.2-1.5.3-3 .4-4.5.1-.7.2-1.5.2-2.3.2-2.4.4-4.8.7-7.4.1-.9.2-1.8.2-2.8l.2-2.3.3-4.2c.2-3 .4-6.2.7-9.4l.2-3 .3-6c.1-1.3.2-2.7.2-4 .1-.8.1-1.6.1-2.5l.3-6.6c.1-2.6.2-5.3.3-8l.1-3.8.1-4 .1-4.9c.1-5.1.1-10.4.1-15.8 0-1.7 0-3.3-.1-5v-.5c0-1.7-.1-3.4-.1-5.2l-.1-4.7c-.1-2.5-.2-5-.3-7.6-.1-2.7-.2-5.4-.4-8.2l-.3-4.8-.3-5.2c-.2-3.5-.5-7-.9-10.5-.1-1.4-.2-2.8-.4-4.2l-.5-5.1v-.1l-.6-4.9c-.6-5-1.3-10.1-2.1-15.1-.2-1.7-.5-3.3-.8-5-.1-.3-.1-.6-.1-.8-.2-1.4-.5-2.8-.7-4.1l-.9-4.9c-.1-.6-.2-1.2-.4-1.9-.3-1.8-.7-3.5-1.1-5.3-.9-3.9-1.8-7.7-2.7-11.5-.2-1-.5-1.9-.7-2.8-2.3-8.7-5-17.1-8.2-25.1-.4-1.2-.9-2.4-1.4-3.5-.5-1.3-1.1-2.7-1.7-4-.4-1-.9-2-1.3-2.9-.6-1.4-1.3-2.8-1.9-4.1-.6-1.2-1.1-2.3-1.8-3.5l-1.4-2.7c-.5-.9-1-1.9-1.6-2.8-.5-.9-1-1.8-1.5-2.6-.6-1-1.2-2-1.8-2.9-.4-.7-.8-1.3-1.2-1.9-1.7-2.7-3.5-5.2-5.4-7.7l-1.5-2-1.8-2.2-1.2-1.5c-.7-.9-1.5-1.8-2.4-2.6l-1.1-1.2c-3.6-3.8-7.5-7.3-11.6-10.5l1.5-84.9c-8.8-2.9-191.1-52-339.3-13.3 0 0 47.3-141.5 239.6-133.5 190.3 8.2 341.6 75.8 292.2 345.7zm-496-27c-1.4-.7-56.8-30-88.6-16 .3-10 2.5-17.1 5.4-24.9 17.4-.6 47.8-.8 58.9 5.1 15.6 8.2 24 34.6 24.3 35.8zm251.6-9.3c-1.9-.7-71.1-25.5-98.6-18.1-27.9 7.5-75.2 8.8-75.2 8.8s-24.3-7.5-11.1-28.7c0 0 97.3-13.3 128.2-1.3 30.4 11.6 55.6 38.1 56.7 39.3zm-266.2 31.8c0 2.7-2.2 4.9-4.9 4.9s-4.9-2.2-4.9-4.9 2.2-4.9 4.9-4.9c2.7.1 4.9 2.2 4.9 4.9z"/><path class="st4" d="M209.1 373c0 2.7-2.2 4.9-4.9 4.9s-4.9-2.2-4.9-4.9 2.2-4.9 4.9-4.9c2.7.1 4.9 2.2 4.9 4.9zm9.6-8.8c-2.4 6.6-5.6 15.1-9.2 24.7l-1.3.3 1.3-.3 9.2-24.7z"/><path class="st5" d="M197.9 391c-12.9 1.9-26.7 2.6-32.5 1.1-11.9-3.1-25.7-29.2 5.7-36.3 8.6-1.9 16.8-1.7 24.1-.4-6.2 3.2-10.3 9.7-10.3 17.2-.1 8.5 5.4 15.7 13 18.4z"/><path class="st4" d="M209.1 373c0 2.7-2.2 4.9-4.9 4.9s-4.9-2.2-4.9-4.9 2.2-4.9 4.9-4.9c2.7.1 4.9 2.2 4.9 4.9zm9.6-8.8c-2.4 6.6-5.6 15.1-9.2 24.7l-1.3.3 1.3-.3 9.2-24.7z"/><path class="st6" d="M195.1 355.4c-6.2 3.2-10.3 9.7-10.3 17.2 0 8.5 5.5 15.8 13.1 18.4.8-.1 1.5-.2 2.2-.3.7-.1 1.5-.2 2.2-.4l2.3-.4c.4-.1.7-.1 1-.2l2.4-.5 1.3-.3 9.3-24.7c-5.6-3.2-13.8-7-23.5-8.8zm9.2 22.5c-2.7 0-4.9-2.2-4.9-4.9s2.2-4.9 4.9-4.9 4.9 2.2 4.9 4.9c-.1 2.7-2.3 4.9-4.9 4.9z"/><path class="st4" d="M290.5 492.4c1.3 14.6 4.4 37.1-32.7 42-37.1 4.9-33.2-16.3-57.9-.4-24.8 15.9-54.4-7.5-32.3-47.8 12.6-22.9 29.1-63.7 40.9-94.7l1-2.7m9.2-24.6l1.2-3.2c2.4-6.6 3.8-10.6 3.8-10.6m-4 166.3s28.3-7.5 44.2 3.5"/><path class="st3" d="M254.2 522.5c0 1.7-6.7 3.1-15 3.1s-15-1.4-15-3.1c0-1.7 6.7-3.1 15-3.1s15 1.4 15 3.1z"/><path class="st5" d="M376.7 392.2c-13.6 1.7-27.6-.2-56.2-19.2 0 0 22.6-13.6 51.1-13.5-2.9 3.9-4.7 8.7-4.7 13.9.1 7.8 3.9 14.7 9.8 18.8z"/><path class="st4" d="M394.4 373.9c0 2.4-2 4.4-4.4 4.4-2.4 0-4.4-2-4.4-4.4 0-2.4 2-4.4 4.4-4.4 2.4 0 4.4 2 4.4 4.4z"/><path class="st5" d="M432.8 387.6s-1.6-.8-25.3.6c3.4-4 5.4-9.1 5.4-14.7l-.1-2.6c6.8 4.1 13.6 9.6 20 16.7z"/><path class="st3" d="M394.4 373.9c0 2.4-2 4.4-4.4 4.4-2.4 0-4.4-2-4.4-4.4 0-2.4 2-4.4 4.4-4.4 2.4 0 4.4 2 4.4 4.4z"/><path class="st6" d="M412.8 370.9c-13.9-8.4-28.1-11.3-41.1-11.3-2.9 3.9-4.7 8.7-4.7 13.9 0 7.7 3.8 14.6 9.7 18.8 7.9-1 15.7-3.1 26.1-3.7 1.7-.1 3.3-.2 4.8-.3 3.4-4 5.4-9.1 5.4-14.7-.1-1-.1-1.8-.2-2.7zm-22.8 7.4c-2.4 0-4.4-2-4.4-4.4 0-2.4 2-4.4 4.4-4.4 2.4 0 4.4 2 4.4 4.4 0 2.5-2 4.4-4.4 4.4z"/><path class="st4" d="M394.4 373.9c0 2.4-2 4.4-4.4 4.4-2.4 0-4.4-2-4.4-4.4 0-2.4 2-4.4 4.4-4.4 2.4 0 4.4 2 4.4 4.4z"/><path class="st7" d="M325.4 618.4s-29.2 26.5-76.9 35.2c-6.4 1.1-12.2 2.1-17.6 3-22.6 3.5-37 4.1-47.7-.5-5.9-2.5-10.7-6.5-15.2-12.5-14.6-19.4 8.4-35.8 8.4-35.8 11.5-4.4 16.8 3.1 33.6 8.8 16.8 5.8 46-11.9 68.5-2.2 22.6 9.8 46.9 4 46.9 4zm0 0s-24.3 5.8-46.9-4c-22.5-9.7-51.7 8-68.5 2.2-16.8-5.7-22.1-13.3-33.6-8.8 0 0-8.3-2-14.6-11.9-3.4-5.3-1.7-12.4 3.8-15.7 5.4-3.2 12.9-4.9 21.3 1.7 15.9 12.6 24.5 8 34.5 3.3 9.8-4.6 104 33.2 104 33.2z"/><path class="st3" d="M347.9 612.2v166.4c-3.9.8-7.7 1.6-11.4 2.3-.6.1-1.2.2-1.9.4l-1.1.2-2.5.5c-2.4.5-4.7.9-6.9 1.4-1.1.2-2.2.5-3.3.6-10.8 2.1-19.3 3.7-24.3 4.5l-1.1.2c-2.4.5-3.7.7-3.7.7s-32.6 3-66.1-1.6c-4.7-.6-9.5-1.4-14.2-2.4-6.4-1.4-12.8-3-18.7-5.1-41.1-14.6-27.9-73.6-27.9-73.6s.3-1.8.5-5.3v-.1c21.6-2.9 57.8-4 91.9 11.8 36.1 16.7 64.8 19.1 79.6 18.9h.5v-119.8c0-.8-.6-4-7.7-9.1-25.2-18-87.7-31.6-98.5-27.9-18.6 6.4-27.7 4.1-47.1-6.6-3.3-1.8-6.6-2.1-10.1-.9-12.1 4-23.5 23.9-26.8 31.2l-.9-.4c-1.4-3.9-2.9-7.8-4.6-11.9 5.5-9.5 15.9-24.6 28.9-29 6.4-2.1 12.6-1.5 18.5 1.7 18.2 9.9 24 10.8 38.6 5.8 16-5.5 82.2 10.9 108.1 29.3 8.3 6 12.2 11.7 12.2 17.8z"/><path class="st4" d="M211.5 785.4c-6.6-1.4-13.1-3.1-19.2-5.2-41.1-14.6-27.9-73.6-27.9-73.6s.3-1.8.5-5.3c.2 0 .3 0 .5-.1v.1c-.2 3.5-.5 5.3-.5 5.3s-13.3 59 27.9 73.6c5.9 2.2 12.2 3.8 18.7 5.2z"/><path class="st3" d="M231.2 659.1v9.8c0 5.3-3.9 9.7-9.1 10.3-13.4 1.6-24.5.1-31.5-1.4-4.7-1.1-8-5.3-8-10.1v-8.1c0-1.2.2-2.4.6-3.5 10.7 4.6 25.1 4 47.7.5.2.8.3 1.6.3 2.5z"/><path class="st4" d="M638.9 434s-7.1 6.6-9.7 7.1c-2.7.4.4 12.4 7.1 11.9s14.6 26.1 1.8 39.8c-12.8 13.7-6.2 28.7-2.7 23 3.5-5.7 23.9-28.7 28.3-23s25.2-13.7 21.2-28.3m-28.3-53.4s4-12.8 15.9-14.1c11.9-1.3 9.7-18.6 17.2-15s1.8 21.2 6.6 36.3 19.9 41.1-8.4 78.3"/></g></svg>