<?xml version="1.0" encoding="utf-8"?>
<!-- Generator: Adobe Illustrator 19.1.0, SVG Export Plug-In . SVG Version: 6.00 Build 0)  -->
<svg version="1.1" id="Layer_1" xmlns="http://www.w3.org/2000/svg" xmlns:xlink="http://www.w3.org/1999/xlink" x="0px" y="0px"
	 viewBox="-959 727 600 218" style="enable-background:new -959 727 600 218;" xml:space="preserve">
<style type="text/css">
	.st0{fill:#FFC700;}
	.st1{fill:#CF0A2C;}
</style>
<g>
	<path class="st0" d="M-906.7,818.7c-1.9-2-4.4-3-7.3-3s-5.3,1-7.3,3c-1.9,2-2.9,4.5-2.9,7.4c0,2.9,1,5.3,2.9,7.2
		c2,1.9,4.4,2.8,7.3,2.8c2.8,0,5.2-1,7.2-2.9c2-1.9,3-4.3,3-7.1C-903.7,823.2-904.7,820.7-906.7,818.7z"/>
	<path class="st0" d="M-821.6,826.2v47.5c0,4.9-2.4,7.4-7.3,7.4h-52.1c-0.2,2.3-0.5,5.1-0.9,8.6c-0.9,7.4-4.8,13.6-11.7,18.6
		c-6.4,4.6-13.4,7-21.1,7c-10.3,0-18.7-2.3-25-6.9c-7.1-5.2-10.7-12.7-10.7-22.7v-10c1.4-2.9,4-6.1,8.1-9.7
		c3.7-3.4,7.2-5.8,10.4-7.3v19.5c0,10.4,5.3,15.7,15.8,15.7c4.7,0,8.7-1.4,11.8-4.3c3.1-2.9,4.6-6.7,4.6-11.4V853
		c1.7-3.1,4.5-6.3,8.4-9.7c3.9-3.4,7.5-5.9,10.8-7.4v21h39.7v-13.5c1.5-3,4.3-6.3,8.4-9.8C-828.4,830.3-824.9,827.8-821.6,826.2z"/>
	<path class="st0" d="M-827.4,897.7c-2-2-4.4-3-7.1-3c-2.8,0-5.3,1-7.3,2.9c-2,1.9-3,4.3-3,7.2c0,2.9,1,5.3,3,7.3
		c2,1.9,4.4,2.9,7.3,2.9c2.9,0,5.3-1,7.2-2.9c1.9-2,2.9-4.4,2.9-7.3C-824.4,902.1-825.4,899.7-827.4,897.7z M-856.3,897.7
		c-2-2-4.3-3-7-3c-2.8,0-5.2,1-7.2,3c-2,2-3,4.4-3,7.1c0,2.9,1,5.3,2.9,7.3c1.9,1.9,4.4,2.9,7.3,2.9c2.8,0,5.2-1,7.1-2.9
		c1.9-2,2.9-4.4,2.9-7.3C-853.3,902.1-854.3,899.7-856.3,897.7z"/>
	<path class="st0" d="M-772.4,807.7c-1.9-1.9-4.3-2.9-7.1-2.9c-2.9,0-5.4,1-7.3,2.9c-1.9,1.9-2.9,4.3-2.9,7.2c0,2.9,1,5.3,2.9,7.3
		c1.9,1.9,4.4,2.9,7.3,2.9c2.8,0,5.1-1,7.1-3c1.9-2,2.9-4.4,2.9-7.2C-769.4,812-770.4,809.6-772.4,807.7z"/>
	<path class="st0" d="M-723.6,771.3v105.2c0,3.1-2,4.6-6.1,4.6h-40.2c-2.1,16.9-9.3,25.3-21.7,25.3c-5.3,0-9.9-1.9-13.7-5.8
		c-3.9-3.8-5.8-8.4-5.8-13.6c0-0.3,0-1.3,0.2-3c2.4,1.6,5.5,2.5,9.3,2.5c6.4,0,9.7-1.8,9.7-5.4v-24.2c2.1-3.6,5.2-7.2,9.3-10.9
		c4.5-3.9,8.6-6.3,12.2-7.2l0.1,17.1c0,0.6,0.7,0.9,2,0.9l19.2,0.1h1.6c3.3-0.4,5-2.1,5-5v-63.3c1.6-3.1,4.4-6.4,8.4-9.9
		C-730.7,775.4-727.1,773-723.6,771.3z"/>
	<path class="st0" d="M-684.5,881.2h-19.2v-92.6c1.4-2.8,4.2-6,8.5-9.7c3.9-3.4,7.5-5.9,10.8-7.5V881.2z"/>
	<path class="st0" d="M-413.9,853.7c-3.2-2.6-6.6-7.2-10.1-13.8c-4.3-8.2-7.3-13.3-8.9-15.3c-3.7-4.8-8-7.2-12.7-7.2
		c-4.1,0-7.4,1.7-10.1,5c-2.4,3.1-3.6,6.7-3.6,10.8c0,5.3,0.9,8.9,2.8,10.9c3-1.9,5.3-2.9,6.8-2.9c0.5,0,1.1,0.1,1.8,0.2
		c1.7,0.3,3.5,2.5,5.3,6.7c0.4,1,1.5,4,3.2,8.8h-41.1c-1.5-2.8-4-5.8-7.5-8.9l-14.2-12.4c-0.8-0.7-1.5-1-2-1c-0.3,0-3,2.5-8.2,7.6
		c-9.1,8.3-14.2,13.2-15.3,14.8h-23.4c1.5-1.5,2.3-5,2.3-10.3V840c0-9.2-5.3-13.9-15.9-14h-8.9c-17.4-0.2-26.4-0.5-27-1
		c-1.5-1.8-2.9-3.6-4.4-5.3c-1.2-1.3-3.5-1.9-6.8-1.9v27.5h33.3c5.4,0,8.1,1.5,8.1,4.6c0,4.7-1.5,7-4.4,7h-46.6v24.2h94.8
		c4.7,8.6,11.9,12.9,21.7,12.9c10.1,0,17.6-4.3,22.5-12.9h70.5l5-24.3C-410.5,855.7-412.8,854.6-413.9,853.7z M-504.9,874.5
		c-3.7,0-5.5-1.9-5.5-5.8c0-3.8,1.8-5.7,5.5-5.7c1.5,0,2.8,0.6,3.9,1.7c1.2,1.2,1.7,2.5,1.7,4C-499.2,872.6-501.1,874.5-504.9,874.5
		z"/>
	<path class="st0" d="M-373.6,758.6c0,0.8,0,1.6-0.1,2.4h-25.5v-9.3h2v-8.1c0-3.9,1.6-5.9,4.8-5.9h16.6c0.8,0,1.3,2,1.3,6
		c0,2.2-0.4,3.6-1.2,4.1h-7.9c-0.6,0-0.9,0.6-0.9,1.7c0,1.4,0.4,2.1,1.2,2.1h7.4C-374.4,751.7-373.6,754-373.6,758.6z M-374.6,881.2
		h-19.2v-92.6c1.4-2.8,4.2-6,8.5-9.7c3.9-3.4,7.5-5.9,10.8-7.5V881.2z"/>
</g>
<g>
	<g>
		<path class="st1" d="M-763.4,924.2l0.3-0.1c0.6,0,1.1-0.1,1.5-0.3c0.3-0.2,0.6-0.6,0.8-1.1c0.2-0.5,0.3-1.2,0.3-2.1
			c0-0.9,0-2,0-3.3v-12c0-3.5,0.8-6.2,2.4-8.2c1.6-2,3.9-3,7-3c1.4,0,2.7,0.3,3.8,0.8c1.1,0.5,2.1,1.3,2.9,2.2
			c0.8,1,1.4,2.1,1.8,3.5c0.4,1.4,0.6,2.9,0.6,4.7v12c0,1.3,0,2.4,0,3.3c0,0.9,0.1,1.6,0.3,2.1c0.2,0.5,0.4,0.9,0.8,1.1
			c0.3,0.2,0.8,0.3,1.5,0.3h0.3v2.1h-9.5V924c0.7,0,1.3-0.1,1.6-0.3c0.4-0.2,0.7-0.6,0.9-1.1c0.2-0.5,0.3-1.2,0.3-2.1
			c0-0.9,0-2,0-3.3v-5.5h-11.2v5.5c0,1.3,0,2.4,0,3.3c0,0.9,0.1,1.6,0.3,2.1c0.2,0.5,0.5,0.9,0.9,1.1c0.4,0.2,0.9,0.3,1.6,0.3v2.1
			h-9.5V924.2z M-756.8,909.8h11.2v-5.9c0-1.4-0.2-2.6-0.5-3.6c-0.3-1-0.8-1.7-1.3-2.3c-0.5-0.6-1.1-1-1.8-1.2
			c-0.7-0.2-1.3-0.3-2-0.3c-0.7,0-1.3,0.1-2,0.3c-0.7,0.2-1.3,0.6-1.8,1.2c-0.5,0.6-1,1.3-1.3,2.3c-0.3,1-0.5,2.1-0.5,3.6V909.8z"/>
		<path class="st1" d="M-728.5,895.9c-0.6,0-1.1,0.1-1.5,0.3c-0.3,0.2-0.6,0.6-0.8,1.1c-0.2,0.5-0.3,1.2-0.3,2.1c0,0.9,0,2,0,3.3
			v3.4c1.2-0.9,2.6-1.4,4.3-1.4c1.4,0,2.6,0.3,3.6,0.8c1,0.5,1.8,1.3,2.4,2.2c0.6,1,1.1,2.1,1.4,3.5c0.3,1.4,0.4,2.9,0.4,4.7v1.4
			c0,1.3,0,2.4,0,3.3c0,0.9,0.1,1.6,0.3,2.1c0.2,0.5,0.4,0.9,0.8,1.1c0.3,0.2,0.8,0.3,1.5,0.3l0.3,0.1v1.8h-9.5v-1.9
			c0.7,0,1.3-0.1,1.6-0.3c0.4-0.2,0.7-0.6,0.9-1.1c0.2-0.5,0.3-1.2,0.3-2.1c0-0.9,0-2,0-3.3v-2.7c0-1.4-0.1-2.6-0.3-3.6
			c-0.2-1-0.4-1.7-0.8-2.3c-0.3-0.6-0.8-1-1.3-1.2c-0.5-0.2-1.1-0.3-1.8-0.3c-0.6,0-1.2,0.1-1.8,0.3c-0.5,0.2-1,0.6-1.4,1.1
			c-0.4,0.5-0.7,1.3-0.9,2.2c-0.2,0.9-0.3,2-0.4,3.4v3.1c0,1.3,0,2.4,0,3.3c0,0.9,0.1,1.6,0.3,2.1c0.2,0.5,0.5,0.9,0.9,1.1
			c0.4,0.2,0.9,0.3,1.6,0.3v1.9h-9.5v-1.9h0.3c0.6,0,1.1-0.1,1.5-0.3c0.3-0.2,0.6-0.6,0.8-1.1c0.2-0.5,0.3-1.2,0.3-2.1
			c0-0.9,0-2,0-3.3v-14.6c0-1.3,0-2.4,0-3.3c0-0.9-0.1-1.6-0.3-2.1c-0.2-0.5-0.5-0.9-0.9-1.1c-0.4-0.2-0.9-0.3-1.6-0.3V894h9.5v1.9
			H-728.5z"/>
		<path class="st1" d="M-688.1,911c-0.2-1-0.4-1.7-0.8-2.3c-0.3-0.6-0.8-1-1.3-1.2c-0.5-0.2-1.1-0.3-1.8-0.3c-0.7,0-1.3,0.1-1.8,0.3
			c-0.6,0.2-1,0.6-1.4,1.2c-0.4,0.6-0.7,1.3-0.9,2.3c-0.2,1-0.3,2.2-0.3,3.6c0,0.2,0,0.5,0,0.9c0,0.4,0,1,0,2c0,1.3,0,2.4,0,3.3
			c0,0.9,0.1,1.6,0.3,2.1c0.2,0.5,0.4,0.9,0.8,1.1c0.3,0.2,0.8,0.3,1.5,0.3l0.3,0.1v1.8h-9.5v-1.9c0.7,0,1.2-0.1,1.6-0.3
			c0.4-0.2,0.7-0.5,0.9-1c0.2-0.5,0.3-1.1,0.4-1.8c0.1-0.8,0.1-1.7,0.1-2.8h0l0-3.7c0-1.4-0.1-2.6-0.3-3.5c-0.2-0.9-0.4-1.7-0.8-2.3
			c-0.3-0.6-0.8-1-1.3-1.2c-0.5-0.2-1.1-0.3-1.7-0.3c-0.7,0-1.3,0.1-1.8,0.3c-0.6,0.2-1,0.6-1.4,1.2c-0.4,0.6-0.7,1.3-0.9,2.3
			c-0.2,1-0.3,2.2-0.3,3.6v2.7c0,1.3,0,2.4,0,3.3c0,0.9,0.1,1.6,0.3,2.1c0.2,0.5,0.5,0.9,0.9,1.1c0.4,0.2,0.9,0.3,1.6,0.3v1.9h-9.5
			v-1.9h0.3c0.6,0,1.1-0.1,1.5-0.3c0.3-0.2,0.6-0.6,0.8-1.1c0.2-0.5,0.3-1.2,0.3-2.1c0-0.9,0-2,0-3.3V916c0-3.5,0.7-6.2,2.1-8.2
			c1.4-2,3.4-3,5.9-3c1.5,0,2.7,0.3,3.7,0.8c1,0.5,1.8,1.3,2.4,2.3c0.7-1,1.5-1.9,2.5-2.4c1-0.6,2.2-0.8,3.5-0.8
			c1.4,0,2.6,0.3,3.6,0.8c1,0.5,1.8,1.3,2.4,2.2c0.6,1,1.1,2.1,1.4,3.5c0.3,1.4,0.4,2.9,0.4,4.7v1.4c0,1.3,0,2.4,0,3.3
			c0,0.9,0.1,1.6,0.3,2.1c0.2,0.5,0.4,0.9,0.8,1.1c0.3,0.2,0.8,0.3,1.5,0.3l0.3,0l0,2h-9.5l0-2.1c0.7,0,1.3-0.1,1.6-0.3
			c0.4-0.2,0.7-0.6,0.9-1.1c0.2-0.5,0.3-1.2,0.3-2.1c0-0.9,0-2,0-3.3v-2.7C-687.8,913.1-687.9,911.9-688.1,911z"/>
		<path class="st1" d="M-676.5,916.9c0.1,0.8,0.2,1.6,0.4,2.4c0.2,0.8,0.5,1.6,0.9,2.3c0.4,0.7,0.9,1.2,1.6,1.7
			c0.6,0.5,1.4,0.7,2.4,0.7c0.8,0,1.9-0.2,3.2-0.7l0.3,1.4c-0.7,0.4-1.3,0.8-2,1.1c-0.7,0.3-1.4,0.5-2.1,0.4c-1.1,0-2.2-0.3-3.1-0.8
			c-0.9-0.5-1.8-1.2-2.5-2.2c-0.7-0.9-1.3-2-1.7-3.3c-0.4-1.3-0.6-2.7-0.7-4.2c0-1.4,0.2-2.8,0.6-4c0.4-1.3,0.9-2.4,1.6-3.4
			s1.5-1.7,2.4-2.3c0.9-0.6,2-0.9,3.1-1c1.2,0,2.2,0.3,3.2,0.9c1,0.6,1.8,1.4,2.5,2.3c0.7,1,1.2,2.1,1.6,3.4c0.4,1.3,0.5,2.6,0.5,4
			c0,0.1,0,0.3,0,0.6c0,0.3,0,0.5,0,0.7H-676.5z M-674.1,908.1c-0.5,0.4-0.9,0.9-1.2,1.5c-0.3,0.6-0.6,1.3-0.8,2.1
			c-0.2,0.8-0.3,1.6-0.4,2.5h8.4c-0.2-2.3-0.6-4-1.4-5.1c-0.7-1-1.7-1.6-2.9-1.6h-0.1C-673,907.6-673.6,907.8-674.1,908.1z"/>
		<path class="st1" d="M-645.6,896.4c-0.4,0.2-0.7,0.6-0.9,1.1c-0.2,0.5-0.3,1.2-0.3,2.1c0,0.9,0,2,0,3.3c0,2.5,0,4.5,0,6.1
			c0,1.6,0,2.9,0,3.8s0,1.6,0,2c0,0.4,0,0.6,0,0.6c0,1.6-0.2,3.1-0.5,4.4c-0.3,1.3-0.8,2.4-1.5,3.3c-0.7,0.9-1.5,1.6-2.5,2.1
			c-1,0.5-2.3,0.7-3.8,0.7c-1.4,0-2.6-0.2-3.6-0.7c-1-0.5-1.8-1.2-2.4-2.1c-0.6-0.9-1.1-2-1.4-3.3c-0.3-1.3-0.5-2.8-0.5-4.4
			c0-1.6,0.2-3.1,0.5-4.5c0.3-1.3,0.8-2.5,1.4-3.4c0.6-1,1.5-1.7,2.4-2.2c1-0.5,2.2-0.8,3.6-0.8c1,0,1.8,0.1,2.5,0.4
			c0.7,0.3,1.4,0.6,2,1v-3.2c0-1.3,0-2.4,0-3.3c0-0.9-0.1-1.6-0.3-2.1c-0.1-0.5-0.4-0.9-0.7-1.1c-0.3-0.2-0.8-0.3-1.5-0.3h-0.3v-1.9
			h9.4v1.9C-644.6,896.1-645.2,896.2-645.6,896.4z M-650.8,911.1c-0.2-1-0.5-1.8-0.9-2.4c-0.4-0.6-0.9-1-1.4-1.3
			c-0.6-0.3-1.2-0.4-1.8-0.4c-0.7,0-1.3,0.1-1.8,0.3c-0.6,0.3-1,0.7-1.4,1.3c-0.4,0.6-0.7,1.4-0.9,2.4c-0.2,1-0.3,2.2-0.3,3.6v1.5
			c0,1.4,0.1,2.6,0.3,3.6c0.2,1,0.5,1.7,0.9,2.3c0.4,0.6,0.9,1,1.4,1.2c0.6,0.2,1.2,0.3,1.8,0.3c0.7,0,1.3-0.1,1.8-0.3
			c0.6-0.2,1-0.6,1.4-1.2c0.4-0.6,0.7-1.3,0.9-2.3c0.2-1,0.3-2.1,0.3-3.6v-1.5C-650.5,913.3-650.6,912.1-650.8,911.1z"/>
		<path class="st1" d="M-613.2,926.1h-6.8c-3,0-5.3-1-6.8-3c-1.6-2-2.4-4.7-2.4-8.1v-12.1c0-1.3,0-2.4,0-3.3c0-0.9-0.1-1.6-0.3-2.1
			c-0.2-0.5-0.4-0.9-0.8-1.1c-0.3-0.2-0.8-0.3-1.5-0.3l-0.3-0.1v-1.8h18.9v2.3h-10.2c-0.5,0.1-0.9,0.3-1.2,0.6
			c-0.3,0.3-0.5,0.7-0.6,1.2c-0.1,0.5-0.2,1.2-0.2,2c0,0.8,0,1.8,0,3v4.7h8.7v2h-8.7v6.4c0,1.4,0.2,2.6,0.5,3.5
			c0.3,0.9,0.8,1.7,1.3,2.3c0.5,0.6,1.1,1,1.8,1.2c0.7,0.2,1.3,0.3,2,0.3h6.8V926.1z"/>
		<path class="st1" d="M-601.8,926.1h-9.5v-1.9c0.7,0,1.3-0.1,1.6-0.3c0.4-0.2,0.7-0.6,0.9-1.1c0.2-0.5,0.3-1.2,0.3-2.1
			c0-0.9,0-2,0-3.3v-23.2h3.7v23.2c0,1.3,0,2.4,0,3.3c0,0.9,0.1,1.6,0.3,2.1c0.2,0.5,0.4,0.9,0.8,1.1c0.3,0.2,0.8,0.3,1.5,0.3h0.3
			V926.1z"/>
		<path class="st1" d="M-593.6,913v3.2h-8V913H-593.6z"/>
		<path class="st1" d="M-593.4,926.1l-0.3-1.3c0,0.1,0.1-0.2,0.4-0.7s0.8-1.3,1.4-2.3c0.6-1,1.3-2.2,2.1-3.5
			c0.8-1.4,1.6-2.8,2.5-4.3c0.9-1.5,1.8-3.1,2.8-4.7c0.9-1.6,1.9-3.2,2.8-4.7c0.9-1.5,1.7-3,2.5-4.3c0.8-1.3,1.5-2.5,2.1-3.5
			l-12.5,0c-0.5,0-0.9,0.1-1.2,0.2c-0.3,0.1-0.4,0.4-0.6,0.7c-0.1,0.3-0.2,0.7-0.2,1.2c0,0.5,0,1.1,0,1.8h-1.4v-6.4l21,0v2
			c-0.2,0.3-0.7,1-1.3,2c-0.6,1-1.3,2.3-2.2,3.7c-0.9,1.5-1.8,3.1-2.9,5c-1.1,1.8-2.2,3.7-3.3,5.7c-1.1,1.9-2.2,3.9-3.3,5.8
			c-1.1,1.9-2.1,3.7-3.1,5.3h12.5c0.5,0,0.9-0.1,1.2-0.2c0.3-0.2,0.4-0.4,0.5-0.7c0.1-0.3,0.2-0.7,0.2-1.2c0-0.5,0-1.1,0-1.8h1.4
			v6.4L-593.4,926.1z"/>
		<path class="st1" d="M-566.6,916.9c0.1,0.8,0.2,1.6,0.4,2.4c0.2,0.8,0.5,1.6,0.9,2.3c0.4,0.7,0.9,1.2,1.6,1.7
			c0.6,0.5,1.4,0.7,2.4,0.7c0.8,0,1.9-0.2,3.2-0.7l0.3,1.4c-0.7,0.4-1.3,0.8-2,1.1c-0.7,0.3-1.4,0.5-2.1,0.4c-1.1,0-2.2-0.3-3.1-0.8
			c-0.9-0.5-1.8-1.2-2.5-2.2c-0.7-0.9-1.3-2-1.7-3.3c-0.4-1.3-0.6-2.7-0.7-4.2c0-1.4,0.2-2.8,0.6-4c0.4-1.3,0.9-2.4,1.6-3.4
			c0.7-1,1.5-1.7,2.4-2.3c0.9-0.6,2-0.9,3.1-1c1.2,0,2.2,0.3,3.2,0.9c1,0.6,1.8,1.4,2.5,2.3c0.7,1,1.2,2.1,1.6,3.4
			c0.4,1.3,0.5,2.6,0.5,4c0,0.1,0,0.3,0,0.6c0,0.3,0,0.5,0,0.7H-566.6z M-564.1,908.1c-0.5,0.4-0.9,0.9-1.2,1.5
			c-0.3,0.6-0.6,1.3-0.8,2.1c-0.2,0.8-0.3,1.6-0.4,2.5h8.4c-0.2-2.3-0.6-4-1.4-5.1c-0.7-1-1.7-1.6-2.9-1.6h-0.1
			C-563.1,907.6-563.7,907.8-564.1,908.1z"/>
		<path class="st1" d="M-546.4,917.4c0,1.3,0,2.4,0,3.3c0,0.9,0.1,1.6,0.3,2.1c0.2,0.5,0.4,0.9,0.8,1.1c0.3,0.2,0.8,0.3,1.5,0.3h0.3
			v1.9h-9.5v-1.9c0.7,0,1.3-0.1,1.6-0.3c0.4-0.2,0.7-0.6,0.9-1.1c0.2-0.5,0.3-1.2,0.3-2.1c0-0.9,0-2,0-3.3v-3.8c0-1.3,0-2.4,0-3.3
			c0-0.9-0.1-1.6-0.3-2.1c-0.2-0.5-0.4-0.9-0.8-1.1c-0.3-0.2-0.8-0.3-1.5-0.3h-0.3v-1.9h9.5v1.9c-0.7,0-1.3,0.1-1.6,0.3
			c-0.4,0.2-0.7,0.6-0.9,1.1c-0.2,0.5-0.3,1.2-0.3,2.1c0,0.9,0,2,0,3.3V917.4z M-545.2,897.4c0,1.8-1.4,3.2-3.2,3.2
			c-1.8,0-3.2-1.4-3.2-3.2c0-1.8,1.4-3.2,3.2-3.2C-546.6,894.2-545.2,895.6-545.2,897.4z"/>
		<path class="st1" d="M-527.3,911.1c-0.2-1-0.4-1.7-0.8-2.3c-0.3-0.6-0.8-1-1.3-1.2c-0.5-0.2-1.1-0.3-1.8-0.3
			c-0.7,0-1.3,0.1-1.8,0.3c-0.6,0.2-1,0.6-1.4,1.2c-0.4,0.6-0.7,1.3-0.9,2.3c-0.2,1-0.3,2.2-0.3,3.6v2.7c0,1.3,0,2.4,0,3.3
			c0,0.9,0.1,1.6,0.3,2.1c0.2,0.5,0.5,0.9,0.9,1.1c0.4,0.2,0.9,0.3,1.6,0.3v1.9h-9.5v-1.9h0.3c0.6,0,1.1-0.1,1.5-0.3
			c0.3-0.2,0.6-0.6,0.8-1.1c0.2-0.5,0.3-1.2,0.3-2.1c0-0.9,0-2,0-3.3V916c0-3.5,0.7-6.2,2.1-8.2c1.4-2,3.4-3,5.9-3
			c1.4,0,2.6,0.3,3.6,0.8c1,0.5,1.8,1.3,2.4,2.2c0.6,1,1.1,2.1,1.4,3.5c0.3,1.4,0.4,2.9,0.4,4.7v1.4c0,1.3,0,2.4,0,3.3
			c0,0.9,0.1,1.6,0.3,2.1c0.2,0.5,0.4,0.9,0.8,1.1c0.3,0.2,0.8,0.3,1.5,0.3l0.3,0.1v1.8h-9.5v-1.9c0.7,0,1.3-0.1,1.6-0.3
			c0.4-0.2,0.7-0.6,0.9-1.1c0.2-0.5,0.3-1.2,0.3-2.1c0-0.9,0-2,0-3.3v-2.7C-527,913.3-527.1,912.1-527.3,911.1z"/>
	</g>
</g>
</svg>
