<?xml version="1.0" encoding="utf-8"?>
<!-- Generator: Adobe Illustrator 19.1.0, SVG Export Plug-In . SVG Version: 6.00 Build 0)  -->
<svg version="1.1" id="Layer_1" xmlns="http://www.w3.org/2000/svg" xmlns:xlink="http://www.w3.org/1999/xlink" x="0px" y="0px"
	 viewBox="-311 288 600 218" style="enable-background:new -311 288 600 218;" xml:space="preserve">
<path d="M-254,382.7c-1.9-2-4.4-3-7.3-3s-5.3,1-7.3,3c-1.9,2-2.9,4.5-2.9,7.4s1,5.3,2.9,7.2c2,1.9,4.4,2.8,7.3,2.8
	c2.8,0,5.2-1,7.2-2.9c2-1.9,3-4.3,3-7.1C-251,387.2-252,384.7-254,382.7z M-168.9,390.2v47.5c0,4.9-2.4,7.4-7.3,7.4h-52.1
	c-0.2,2.3-0.5,5.1-0.9,8.6c-0.9,7.4-4.8,13.6-11.7,18.6c-6.4,4.6-13.4,7-21.1,7c-10.3,0-18.7-2.3-25-6.9
	c-7.1-5.2-10.7-12.7-10.7-22.7v-10c1.4-2.9,4-6.1,8.1-9.7c3.7-3.4,7.2-5.8,10.4-7.3v19.5c0,10.4,5.3,15.7,15.8,15.7
	c4.7,0,8.7-1.4,11.8-4.3c3.1-2.9,4.6-6.7,4.6-11.4V417c1.7-3.1,4.5-6.3,8.4-9.7s7.5-5.9,10.8-7.4v21h39.7v-13.5
	c1.5-3,4.3-6.3,8.4-9.8C-175.7,394.3-172.2,391.8-168.9,390.2L-168.9,390.2z M-174.7,461.7c-2-2-4.4-3-7.1-3c-2.8,0-5.3,1-7.3,2.9
	s-3,4.3-3,7.2s1,5.3,3,7.3c2,1.9,4.4,2.9,7.3,2.9c2.9,0,5.3-1,7.2-2.9c1.9-2,2.9-4.4,2.9-7.3C-171.7,466.1-172.7,463.7-174.7,461.7
	L-174.7,461.7z M-203.6,461.7c-2-2-4.3-3-7-3c-2.8,0-5.2,1-7.2,3s-3,4.4-3,7.1c0,2.9,1,5.3,2.9,7.3c1.9,1.9,4.4,2.9,7.3,2.9
	c2.8,0,5.2-1,7.1-2.9c1.9-2,2.9-4.4,2.9-7.3C-200.6,466.1-201.6,463.7-203.6,461.7z M-119.7,371.7c-1.9-1.9-4.3-2.9-7.1-2.9
	c-2.9,0-5.4,1-7.3,2.9c-1.9,1.9-2.9,4.3-2.9,7.2s1,5.3,2.9,7.3c1.9,1.9,4.4,2.9,7.3,2.9c2.8,0,5.1-1,7.1-3c1.9-2,2.9-4.4,2.9-7.2
	C-116.7,376-117.7,373.6-119.7,371.7z M-70.9,335.3v105.2c0,3.1-2,4.6-6.1,4.6h-40.2c-2.1,16.9-9.3,25.3-21.7,25.3
	c-5.3,0-9.9-1.9-13.7-5.8c-3.9-3.8-5.8-8.4-5.8-13.6c0-0.3,0-1.3,0.2-3c2.4,1.6,5.5,2.5,9.3,2.5c6.4,0,9.7-1.8,9.7-5.4v-24.2
	c2.1-3.6,5.2-7.2,9.3-10.9c4.5-3.9,8.6-6.3,12.2-7.2l0.1,17.1c0,0.6,0.7,0.9,2,0.9l19.2,0.1h1.6c3.3-0.4,5-2.1,5-5v-63.3
	c1.6-3.1,4.4-6.4,8.4-9.9C-78,339.4-74.4,337-70.9,335.3L-70.9,335.3z M-31.8,445.2H-51v-92.6c1.4-2.8,4.2-6,8.5-9.7
	c3.9-3.4,7.5-5.9,10.8-7.5L-31.8,445.2L-31.8,445.2z M238.8,417.7c-3.2-2.6-6.6-7.2-10.1-13.8c-4.3-8.2-7.3-13.3-8.9-15.3
	c-3.7-4.8-8-7.2-12.7-7.2c-4.1,0-7.4,1.7-10.1,5c-2.4,3.1-3.6,6.7-3.6,10.8c0,5.3,0.9,8.9,2.8,10.9c3-1.9,5.3-2.9,6.8-2.9
	c0.5,0,1.1,0.1,1.8,0.2c1.7,0.3,3.5,2.5,5.3,6.7c0.4,1,1.5,4,3.2,8.8h-41.1c-1.5-2.8-4-5.8-7.5-8.9l-14.2-12.4c-0.8-0.7-1.5-1-2-1
	c-0.3,0-3,2.5-8.2,7.6c-9.1,8.3-14.2,13.2-15.3,14.8h-23.4c1.5-1.5,2.3-5,2.3-10.3V404c0-9.2-5.3-13.9-15.9-14h-8.9
	c-17.4-0.2-26.4-0.5-27-1c-1.5-1.8-2.9-3.6-4.4-5.3c-1.2-1.3-3.5-1.9-6.8-1.9v27.5h33.3c5.4,0,8.1,1.5,8.1,4.6c0,4.7-1.5,7-4.4,7
	H31.3v24.2h94.8c4.7,8.6,11.9,12.9,21.7,12.9c10.1,0,17.6-4.3,22.5-12.9h70.5l5-24.3C242.2,419.7,239.9,418.6,238.8,417.7
	L238.8,417.7z M147.8,438.5c-3.7,0-5.5-1.9-5.5-5.8c0-3.8,1.8-5.7,5.5-5.7c1.5,0,2.8,0.6,3.9,1.7c1.2,1.2,1.7,2.5,1.7,4
	C153.5,436.6,151.6,438.5,147.8,438.5z M279.1,322.6c0,0.8,0,1.6-0.1,2.4h-25.5v-9.3h2v-8.1c0-3.9,1.6-5.9,4.8-5.9h16.6
	c0.8,0,1.3,2,1.3,6c0,2.2-0.4,3.6-1.2,4.1h-7.9c-0.6,0-0.9,0.6-0.9,1.7c0,1.4,0.4,2.1,1.2,2.1h7.4
	C278.3,315.7,279.1,318,279.1,322.6L279.1,322.6z M278.1,445.2h-19.2v-92.6c1.4-2.8,4.2-6,8.5-9.7c3.9-3.4,7.5-5.9,10.8-7.5
	L278.1,445.2L278.1,445.2z"/>
<path d="M-110.7,488.2l0.3-0.1c0.6,0,1.1-0.1,1.5-0.3c0.3-0.2,0.6-0.6,0.8-1.1s0.3-1.2,0.3-2.1v-15.3c0-3.5,0.8-6.2,2.4-8.2
	c1.6-2,3.9-3,7-3c1.4,0,2.7,0.3,3.8,0.8s2.1,1.3,2.9,2.2c0.8,1,1.4,2.1,1.8,3.5c0.4,1.4,0.6,2.9,0.6,4.7v15.3c0,0.9,0.1,1.6,0.3,2.1
	s0.4,0.9,0.8,1.1c0.3,0.2,0.8,0.3,1.5,0.3h0.3v2.1h-9.5V488c0.7,0,1.3-0.1,1.6-0.3c0.4-0.2,0.7-0.6,0.9-1.1s0.3-1.2,0.3-2.1v-8.8
	h-11.2v8.8c0,0.9,0.1,1.6,0.3,2.1s0.5,0.9,0.9,1.1c0.4,0.2,0.9,0.3,1.6,0.3v2.1h-9.5v-1.9L-110.7,488.2z M-104.1,473.8h11.2v-5.9
	c0-1.4-0.2-2.6-0.5-3.6s-0.8-1.7-1.3-2.3s-1.1-1-1.8-1.2s-1.3-0.3-2-0.3s-1.3,0.1-2,0.3s-1.3,0.6-1.8,1.2s-1,1.3-1.3,2.3
	s-0.5,2.1-0.5,3.6L-104.1,473.8L-104.1,473.8z M-75.8,459.9c-0.6,0-1.1,0.1-1.5,0.3c-0.3,0.2-0.6,0.6-0.8,1.1s-0.3,1.2-0.3,2.1v6.7
	c1.2-0.9,2.6-1.4,4.3-1.4c1.4,0,2.6,0.3,3.6,0.8s1.8,1.3,2.4,2.2c0.6,1,1.1,2.1,1.4,3.5c0.3,1.4,0.4,2.9,0.4,4.7v4.7
	c0,0.9,0.1,1.6,0.3,2.1s0.4,0.9,0.8,1.1c0.3,0.2,0.8,0.3,1.5,0.3l0.3,0.1v1.8h-9.5v-1.9c0.7,0,1.3-0.1,1.6-0.3
	c0.4-0.2,0.7-0.6,0.9-1.1s0.3-1.2,0.3-2.1v-6c0-1.4-0.1-2.6-0.3-3.6s-0.4-1.7-0.8-2.3c-0.3-0.6-0.8-1-1.3-1.2s-1.1-0.3-1.8-0.3
	c-0.6,0-1.2,0.1-1.8,0.3c-0.5,0.2-1,0.6-1.4,1.1s-0.7,1.3-0.9,2.2s-0.3,2-0.4,3.4v6.4c0,0.9,0.1,1.6,0.3,2.1s0.5,0.9,0.9,1.1
	c0.4,0.2,0.9,0.3,1.6,0.3v1.9h-9.5v-1.9h0.3c0.6,0,1.1-0.1,1.5-0.3c0.3-0.2,0.6-0.6,0.8-1.1s0.3-1.2,0.3-2.1v-21.2
	c0-0.9-0.1-1.6-0.3-2.1s-0.5-0.9-0.9-1.1c-0.4-0.2-0.9-0.3-1.6-0.3V458h9.5v1.9H-75.8L-75.8,459.9z M-35.4,475
	c-0.2-1-0.4-1.7-0.8-2.3c-0.3-0.6-0.8-1-1.3-1.2s-1.1-0.3-1.8-0.3s-1.3,0.1-1.8,0.3c-0.6,0.2-1,0.6-1.4,1.2
	c-0.4,0.6-0.7,1.3-0.9,2.3s-0.3,2.2-0.3,3.6v6.2c0,0.9,0.1,1.6,0.3,2.1s0.4,0.9,0.8,1.1c0.3,0.2,0.8,0.3,1.5,0.3l0.3,0.1v1.8h-9.5
	v-1.9c0.7,0,1.2-0.1,1.6-0.3c0.4-0.2,0.7-0.5,0.9-1s0.3-1.1,0.4-1.8c0.1-0.8,0.1-1.7,0.1-2.8v-3.7c0-1.4-0.1-2.6-0.3-3.5
	s-0.4-1.7-0.8-2.3c-0.3-0.6-0.8-1-1.3-1.2s-1.1-0.3-1.7-0.3c-0.7,0-1.3,0.1-1.8,0.3c-0.6,0.2-1,0.6-1.4,1.2
	c-0.4,0.6-0.7,1.3-0.9,2.3s-0.3,2.2-0.3,3.6v6c0,0.9,0.1,1.6,0.3,2.1s0.5,0.9,0.9,1.1c0.4,0.2,0.9,0.3,1.6,0.3v1.9h-9.5v-1.9h0.3
	c0.6,0,1.1-0.1,1.5-0.3c0.3-0.2,0.6-0.6,0.8-1.1s0.3-1.2,0.3-2.1V480c0-3.5,0.7-6.2,2.1-8.2c1.4-2,3.4-3,5.9-3
	c1.5,0,2.7,0.3,3.7,0.8s1.8,1.3,2.4,2.3c0.7-1,1.5-1.9,2.5-2.4c1-0.6,2.2-0.8,3.5-0.8c1.4,0,2.6,0.3,3.6,0.8s1.8,1.3,2.4,2.2
	c0.6,1,1.1,2.1,1.4,3.5c0.3,1.4,0.4,2.9,0.4,4.7v4.7c0,0.9,0.1,1.6,0.3,2.1s0.4,0.9,0.8,1.1c0.3,0.2,0.8,0.3,1.5,0.3h0.3v2h-9.5V488
	c0.7,0,1.3-0.1,1.6-0.3c0.4-0.2,0.7-0.6,0.9-1.1s0.3-1.2,0.3-2.1v-6C-35.1,477.1-35.2,475.9-35.4,475L-35.4,475z M-23.8,480.9
	c0.1,0.8,0.2,1.6,0.4,2.4c0.2,0.8,0.5,1.6,0.9,2.3s0.9,1.2,1.6,1.7c0.6,0.5,1.4,0.7,2.4,0.7c0.8,0,1.9-0.2,3.2-0.7l0.3,1.4
	c-0.7,0.4-1.3,0.8-2,1.1s-1.4,0.5-2.1,0.4c-1.1,0-2.2-0.3-3.1-0.8c-0.9-0.5-1.8-1.2-2.5-2.2c-0.7-0.9-1.3-2-1.7-3.3
	s-0.6-2.7-0.7-4.2c0-1.4,0.2-2.8,0.6-4c0.4-1.3,0.9-2.4,1.6-3.4s1.5-1.7,2.4-2.3s2-0.9,3.1-1c1.2,0,2.2,0.3,3.2,0.9
	c1,0.6,1.8,1.4,2.5,2.3c0.7,1,1.2,2.1,1.6,3.4c0.4,1.3,0.5,2.6,0.5,4v1.3L-23.8,480.9L-23.8,480.9z M-21.4,472.1
	c-0.5,0.4-0.9,0.9-1.2,1.5s-0.6,1.3-0.8,2.1s-0.3,1.6-0.4,2.5h8.4c-0.2-2.3-0.6-4-1.4-5.1c-0.7-1-1.7-1.6-2.9-1.6h-0.1
	C-20.3,471.6-20.9,471.8-21.4,472.1z M7.1,460.4c-0.4,0.2-0.7,0.6-0.9,1.1s-0.3,1.2-0.3,2.1v15.8c0,1.6-0.2,3.1-0.5,4.4
	c-0.3,1.3-0.8,2.4-1.5,3.3c-0.7,0.9-1.5,1.6-2.5,2.1s-2.3,0.7-3.8,0.7c-1.4,0-2.6-0.2-3.6-0.7s-1.8-1.2-2.4-2.1
	c-0.6-0.9-1.1-2-1.4-3.3c-0.3-1.3-0.5-2.8-0.5-4.4c0-1.6,0.2-3.1,0.5-4.5c0.3-1.3,0.8-2.5,1.4-3.4c0.6-1,1.5-1.7,2.4-2.2
	c1-0.5,2.2-0.8,3.6-0.8c1,0,1.8,0.1,2.5,0.4c0.7,0.3,1.4,0.6,2,1v-6.5c0-0.9-0.1-1.6-0.3-2.1c-0.1-0.5-0.4-0.9-0.7-1.1
	c-0.3-0.2-0.8-0.3-1.5-0.3h-0.3V458h9.4v1.9C8.1,460.1,7.5,460.2,7.1,460.4L7.1,460.4z M1.9,475.1c-0.2-1-0.5-1.8-0.9-2.4
	c-0.4-0.6-0.9-1-1.4-1.3c-0.6-0.3-1.2-0.4-1.8-0.4c-0.7,0-1.3,0.1-1.8,0.3c-0.6,0.3-1,0.7-1.4,1.3s-0.7,1.4-0.9,2.4
	s-0.3,2.2-0.3,3.6v1.5c0,1.4,0.1,2.6,0.3,3.6s0.5,1.7,0.9,2.3s0.9,1,1.4,1.2c0.6,0.2,1.2,0.3,1.8,0.3c0.7,0,1.3-0.1,1.8-0.3
	c0.6-0.2,1-0.6,1.4-1.2c0.4-0.6,0.7-1.3,0.9-2.3s0.3-2.1,0.3-3.6v-1.5C2.2,477.3,2.1,476.1,1.9,475.1L1.9,475.1z M39.5,490.1h-6.8
	c-3,0-5.3-1-6.8-3c-1.6-2-2.4-4.7-2.4-8.1v-15.4c0-0.9-0.1-1.6-0.3-2.1s-0.4-0.9-0.8-1.1c-0.3-0.2-0.8-0.3-1.5-0.3l-0.3-0.1v-1.8
	h18.9v2.3H29.3c-0.5,0.1-0.9,0.3-1.2,0.6s-0.5,0.7-0.6,1.2s-0.2,1.2-0.2,2v7.7H36v2h-8.7v6.4c0,1.4,0.2,2.6,0.5,3.5s0.8,1.7,1.3,2.3
	s1.1,1,1.8,1.2s1.3,0.3,2,0.3h6.8v2.4L39.5,490.1z M50.9,490.1h-9.5v-1.9c0.7,0,1.3-0.1,1.6-0.3c0.4-0.2,0.7-0.6,0.9-1.1
	s0.3-1.2,0.3-2.1v-26.5h3.7v26.5c0,0.9,0.1,1.6,0.3,2.1s0.4,0.9,0.8,1.1c0.3,0.2,0.8,0.3,1.5,0.3h0.3v1.9H50.9z M59.1,477v3.2h-8
	V477H59.1z M59.3,490.1l-0.3-1.3l0.4-0.7c0,0,0.8-1.3,1.4-2.3c0.6-1,1.3-2.2,2.1-3.5c0.8-1.4,1.6-2.8,2.5-4.3s1.8-3.1,2.8-4.7
	c0.9-1.6,1.9-3.2,2.8-4.7c0.9-1.5,1.7-3,2.5-4.3s1.5-2.5,2.1-3.5H63.1c-0.5,0-0.9,0.1-1.2,0.2c-0.3,0.1-0.4,0.4-0.6,0.7
	c-0.1,0.3-0.2,0.7-0.2,1.2v1.8h-1.4v-6.4h21v2c-0.2,0.3-0.7,1-1.3,2s-1.3,2.3-2.2,3.7c-0.9,1.5-1.8,3.1-2.9,5
	c-1.1,1.8-2.2,3.7-3.3,5.7l-3.3,5.8c-1.1,1.9-2.1,3.7-3.1,5.3h12.5c0.5,0,0.9-0.1,1.2-0.2c0.3-0.2,0.4-0.4,0.5-0.7s0.2-0.7,0.2-1.2
	v-1.8h1.4v6.4L59.3,490.1L59.3,490.1z M86.1,480.9c0.1,0.8,0.2,1.6,0.4,2.4c0.2,0.8,0.5,1.6,0.9,2.3s0.9,1.2,1.6,1.7
	c0.6,0.5,1.4,0.7,2.4,0.7c0.8,0,1.9-0.2,3.2-0.7l0.3,1.4c-0.7,0.4-1.3,0.8-2,1.1s-1.4,0.5-2.1,0.4c-1.1,0-2.2-0.3-3.1-0.8
	c-0.9-0.5-1.8-1.2-2.5-2.2c-0.7-0.9-1.3-2-1.7-3.3s-0.6-2.7-0.7-4.2c0-1.4,0.2-2.8,0.6-4c0.4-1.3,0.9-2.4,1.6-3.4
	c0.7-1,1.5-1.7,2.4-2.3s2-0.9,3.1-1c1.2,0,2.2,0.3,3.2,0.9c1,0.6,1.8,1.4,2.5,2.3c0.7,1,1.2,2.1,1.6,3.4c0.4,1.3,0.5,2.6,0.5,4v1.3
	L86.1,480.9L86.1,480.9z M88.6,472.1c-0.5,0.4-0.9,0.9-1.2,1.5s-0.6,1.3-0.8,2.1s-0.3,1.6-0.4,2.5h8.4c-0.2-2.3-0.6-4-1.4-5.1
	c-0.7-1-1.7-1.6-2.9-1.6h-0.1C89.6,471.6,89,471.8,88.6,472.1z M106.3,481.4v3.3c0,0.9,0.1,1.6,0.3,2.1s0.4,0.9,0.8,1.1
	c0.3,0.2,0.8,0.3,1.5,0.3h0.3v1.9h-9.5v-1.9c0.7,0,1.3-0.1,1.6-0.3c0.4-0.2,0.7-0.6,0.9-1.1s0.3-1.2,0.3-2.1v-10.4
	c0-0.9-0.1-1.6-0.3-2.1s-0.4-0.9-0.8-1.1c-0.3-0.2-0.8-0.3-1.5-0.3h-0.3v-1.9h9.5v1.9c-0.7,0-1.3,0.1-1.6,0.3
	c-0.4,0.2-0.7,0.6-0.9,1.1s-0.3,1.2-0.3,2.1V481.4L106.3,481.4z M107.5,461.4c0,1.8-1.4,3.2-3.2,3.2s-3.2-1.4-3.2-3.2
	s1.4-3.2,3.2-3.2S107.5,459.6,107.5,461.4z M125.4,475.1c-0.2-1-0.4-1.7-0.8-2.3c-0.3-0.6-0.8-1-1.3-1.2s-1.1-0.3-1.8-0.3
	s-1.3,0.1-1.8,0.3c-0.6,0.2-1,0.6-1.4,1.2c-0.4,0.6-0.7,1.3-0.9,2.3s-0.3,2.2-0.3,3.6v6c0,0.9,0.1,1.6,0.3,2.1s0.5,0.9,0.9,1.1
	c0.4,0.2,0.9,0.3,1.6,0.3v1.9h-9.5v-1.9h0.3c0.6,0,1.1-0.1,1.5-0.3c0.3-0.2,0.6-0.6,0.8-1.1s0.3-1.2,0.3-2.1V480
	c0-3.5,0.7-6.2,2.1-8.2c1.4-2,3.4-3,5.9-3c1.4,0,2.6,0.3,3.6,0.8s1.8,1.3,2.4,2.2c0.6,1,1.1,2.1,1.4,3.5c0.3,1.4,0.4,2.9,0.4,4.7
	v4.7c0,0.9,0.1,1.6,0.3,2.1s0.4,0.9,0.8,1.1c0.3,0.2,0.8,0.3,1.5,0.3l0.3,0.1v1.8h-9.5v-1.9c0.7,0,1.3-0.1,1.6-0.3
	c0.4-0.2,0.7-0.6,0.9-1.1s0.3-1.2,0.3-2.1v-6C125.7,477.3,125.6,476.1,125.4,475.1L125.4,475.1z"/>
</svg>
