<?xml version="1.0" encoding="utf-8"?>
<!-- Generator: Adobe Illustrator 19.1.0, SVG Export Plug-In . SVG Version: 6.00 Build 0)  -->
<svg version="1.1" id="Layer_1" xmlns="http://www.w3.org/2000/svg" xmlns:xlink="http://www.w3.org/1999/xlink" x="0px" y="0px"
	 viewBox="-311 288 600 218" style="enable-background:new -311 288 600 218;" xml:space="preserve">
<style type="text/css">
	.st0{fill:#231F20;}
</style>
<g>
	<path class="st0" d="M-255,379.4c-1.9-2-4.4-3-7.3-3s-5.3,1-7.3,3c-1.9,2-2.9,4.5-2.9,7.4c0,2.9,1,5.3,2.9,7.2
		c2,1.9,4.4,2.8,7.3,2.8c2.8,0,5.2-1,7.2-2.9c2-1.9,3-4.3,3-7.1C-252,383.9-253,381.4-255,379.4z"/>
	<path class="st0" d="M-169.9,386.9v47.5c0,4.9-2.4,7.4-7.3,7.4h-52.1c-0.2,2.3-0.5,5.1-0.9,8.6c-0.9,7.4-4.8,13.6-11.7,18.6
		c-6.4,4.6-13.4,7-21.1,7c-10.3,0-18.7-2.3-25-6.9c-7.1-5.2-10.7-12.7-10.7-22.7v-10c1.4-2.9,4-6.1,8.1-9.7
		c3.7-3.4,7.2-5.8,10.4-7.3v19.5c0,10.4,5.3,15.7,15.8,15.7c4.7,0,8.7-1.4,11.8-4.3c3.1-2.9,4.6-6.7,4.6-11.4v-25.2
		c1.7-3.1,4.5-6.3,8.4-9.7c3.9-3.4,7.5-5.9,10.8-7.4v21h39.7v-13.5c1.5-3,4.3-6.3,8.4-9.8C-176.8,390.9-173.2,388.5-169.9,386.9z"/>
	<path class="st0" d="M-175.7,458.4c-2-2-4.4-3-7.1-3c-2.8,0-5.3,1-7.3,2.9c-2,1.9-3,4.3-3,7.2c0,2.9,1,5.3,3,7.3
		c2,1.9,4.4,2.9,7.3,2.9c2.9,0,5.3-1,7.3-2.9c1.9-2,2.9-4.4,2.9-7.3C-172.7,462.7-173.7,460.4-175.7,458.4z M-204.6,458.4
		c-2-2-4.3-3-7-3c-2.8,0-5.2,1-7.2,3c-2,2-3,4.4-3,7.1c0,2.9,1,5.3,2.9,7.3c1.9,1.9,4.4,2.9,7.3,2.9c2.8,0,5.2-1,7.1-2.9
		c1.9-2,2.9-4.4,2.9-7.3C-201.6,462.7-202.6,460.4-204.6,458.4z"/>
	<path class="st0" d="M-120.7,368.3c-1.9-1.9-4.3-2.9-7.1-2.9c-2.9,0-5.4,1-7.3,2.9c-1.9,1.9-2.9,4.3-2.9,7.2c0,2.9,1,5.3,2.9,7.3
		c1.9,1.9,4.4,2.9,7.3,2.9c2.8,0,5.1-1,7.1-3c1.9-2,2.9-4.4,2.9-7.3C-117.8,372.7-118.7,370.3-120.7,368.3z"/>
	<path class="st0" d="M-72,332v105.2c0,3.1-2,4.6-6.1,4.6h-40.2c-2.1,16.9-9.3,25.3-21.8,25.3c-5.3,0-9.9-1.9-13.7-5.8
		c-3.9-3.8-5.8-8.4-5.8-13.6c0-0.3,0-1.3,0.2-3c2.4,1.6,5.5,2.5,9.3,2.5c6.4,0,9.7-1.8,9.7-5.4v-24.2c2.1-3.6,5.2-7.2,9.3-10.9
		c4.5-3.9,8.6-6.3,12.2-7.2l0.1,17.1c0,0.6,0.7,0.9,2,0.9l19.2,0.1h1.6c3.3-0.4,5-2.1,5-5v-63.3c1.6-3.1,4.4-6.4,8.4-9.9
		C-79,336.1-75.4,333.6-72,332z"/>
	<path class="st0" d="M-32.8,441.8H-52v-92.6c1.4-2.8,4.2-6,8.5-9.7c3.9-3.4,7.5-5.9,10.8-7.5V441.8z"/>
	<path class="st0" d="M237.8,414.4c-3.2-2.6-6.6-7.3-10.1-13.8c-4.3-8.2-7.3-13.3-8.9-15.3c-3.7-4.8-8-7.2-12.7-7.2
		c-4.1,0-7.4,1.7-10.1,5c-2.4,3.1-3.6,6.7-3.6,10.8c0,5.3,0.9,8.9,2.8,10.9c3-1.9,5.3-2.9,6.8-2.9c0.5,0,1.1,0.1,1.8,0.2
		c1.7,0.3,3.5,2.5,5.3,6.7c0.4,1,1.5,4,3.2,8.8h-41.1c-1.5-2.8-4-5.8-7.5-8.9l-14.2-12.4c-0.8-0.7-1.5-1-2-1c-0.3,0-3,2.5-8.2,7.6
		c-9.1,8.3-14.2,13.2-15.3,14.8h-23.4c1.5-1.5,2.3-5,2.3-10.3v-6.6c0-9.2-5.3-13.9-15.9-14h-8.9c-17.4-0.2-26.4-0.5-27-1
		c-1.5-1.8-2.9-3.6-4.4-5.3c-1.2-1.3-3.5-1.9-6.8-1.9V406h33.3c5.4,0,8.1,1.5,8.1,4.6c0,4.7-1.5,7-4.4,7H30.3v24.2h94.8
		c4.7,8.6,11.9,12.9,21.7,12.9c10.1,0,17.6-4.3,22.5-12.9h70.5l5-24.3C241.2,416.3,238.9,415.3,237.8,414.4z M146.8,435.2
		c-3.7,0-5.5-1.9-5.5-5.8c0-3.8,1.8-5.7,5.5-5.7c1.5,0,2.8,0.6,3.9,1.7c1.2,1.2,1.7,2.5,1.7,4C152.5,433.2,150.6,435.2,146.8,435.2z
		"/>
	<path class="st0" d="M278.1,319.3c0,0.8,0,1.6-0.1,2.4h-25.5v-9.3h2v-8.1c0-3.9,1.6-5.9,4.8-5.9h16.6c0.8,0,1.3,2,1.3,6
		c0,2.2-0.4,3.6-1.2,4.1H268c-0.6,0-0.9,0.6-0.9,1.7c0,1.4,0.4,2.1,1.2,2.1h7.4C277.3,312.4,278.1,314.7,278.1,319.3z M277.1,441.8
		h-19.2v-92.6c1.4-2.8,4.2-6,8.5-9.7c3.9-3.4,7.5-5.9,10.8-7.5V441.8z"/>
</g>
<g>
	<path class="st0" d="M-109.4,482.6l-1.7,4.2h-6.7l9.3-24.3h6.9l9.2,24.3h-6.7l-1.6-4.2H-109.4z M-105,470L-105,470l-2.7,7.7h5.3
		L-105,470z"/>
	<path class="st0" d="M-84.6,460v12.3h0.1c1.4-1.8,3-2.6,5.3-2.6c4.2,0,6.2,2.8,6.2,7v10.1h-5.9v-8.5c0-1.9-0.3-3.9-2.6-3.9
		c-2.3,0-3.1,2-3.1,3.9v8.5h-5.9V460H-84.6z"/>
	<path class="st0" d="M-63.3,472.3L-63.3,472.3c1.5-1.8,3.2-2.6,5.3-2.6c2.4,0,4.4,1,5.6,3.2c1.1-2.1,3.4-3.2,5.6-3.2
		c4.2,0,5.6,2.7,5.6,6.5v10.5H-47v-7.9c0-1.7,0.1-4.5-2.4-4.5c-2.7,0-2.8,2.5-2.8,4.5v7.9h-5.9v-7.9c0-1.8,0-4.6-2.6-4.6
		c-2.6,0-2.6,2.8-2.6,4.6v7.9h-5.9v-16.5h5.9V472.3z"/>
	<path class="st0" d="M-20.3,479.5h-12.3c0,2.4,1.3,3.7,3.7,3.7c1.3,0,2.2-0.4,2.8-1.5h5.6c-0.5,1.9-1.6,3.4-3.1,4.3
		c-1.5,0.9-3.4,1.4-5.3,1.4c-5.5,0-9.6-3.1-9.6-8.8c0-5.5,3.8-8.8,9.2-8.8c5.7,0,9.1,3.5,9.1,9.2V479.5z M-25.7,476.1
		c-0.3-1.6-1.7-2.6-3.3-2.6c-1.7,0-3.1,0.9-3.5,2.6H-25.7z"/>
	<path class="st0" d="M-5.2,484.9L-5.2,484.9c-1.1,1.6-3.1,2.4-5.1,2.4c-4.9,0-8.4-4.1-8.4-8.8c0-4.7,3.4-8.8,8.3-8.8
		c1.9,0,3.9,0.7,5.1,2.2V460h5.9v26.8h-5.9V484.9z M-12.5,478.5c0,2.1,1.4,3.7,3.8,3.7s3.8-1.6,3.8-3.7c0-2-1.4-3.7-3.8-3.7
		S-12.5,476.5-12.5,478.5z"/>
	<path class="st0" d="M21.9,467.8v4.1H29v5.4h-7.1v4.2h7.5v5.4H15.6v-24.3h13.8v5.4H21.9z"/>
	<path class="st0" d="M39.1,486.8h-5.9V460h5.9V486.8z"/>
	<path class="st0" d="M51.9,474v4.8h-9.2V474H51.9z"/>
	<path class="st0" d="M74.8,481.4v5.4H54l11.5-19H56v-5.4h20.1l-11.4,19H74.8z"/>
	<path class="st0" d="M95.4,479.5H83c0,2.4,1.3,3.7,3.7,3.7c1.3,0,2.2-0.4,2.8-1.5h5.6c-0.5,1.9-1.6,3.4-3.1,4.3
		c-1.5,0.9-3.4,1.4-5.3,1.4c-5.5,0-9.6-3.1-9.6-8.8c0-5.5,3.8-8.8,9.2-8.8c5.7,0,9.1,3.5,9.1,9.2V479.5z M89.9,476.1
		c-0.3-1.6-1.7-2.6-3.3-2.6c-1.7,0-3.1,0.9-3.5,2.6H89.9z"/>
	<path class="st0" d="M104.3,463.9c0,1.8-1.5,3.3-3.3,3.3c-1.8,0-3.3-1.5-3.3-3.3c0-1.8,1.5-3.3,3.3-3.3
		C102.8,460.6,104.3,462.1,104.3,463.9z M103.9,486.8h-5.9v-16.5h5.9V486.8z"/>
	<path class="st0" d="M113.7,472.4L113.7,472.4c1.4-2,3.1-2.7,5.4-2.7c4.4,0,6.2,2.8,6.2,6.9v10.2h-5.9v-8.1c0-1.6,0.3-4.4-2.6-4.4
		c-2.4,0-3.1,1.8-3.1,3.8v8.6h-5.9v-16.5h5.9V472.4z"/>
</g>
</svg>
