<svg xmlns="http://www.w3.org/2000/svg" viewBox="-959 727 600 218" enable-background="new -959 727 600 218"><style type="text/css">.st0{fill:#FFC700;} .st1{fill:#CF0A2C;}</style><path class="st0" d="M-906.7 818.7c-1.9-2-4.4-3-7.3-3s-5.3 1-7.3 3c-1.9 2-2.9 4.5-2.9 7.4 0 2.9 1 5.3 2.9 7.2 2 1.9 4.4 2.8 7.3 2.8 2.8 0 5.2-1 7.2-2.9s3-4.3 3-7.1c.1-2.9-.9-5.4-2.9-7.4zm85.1 7.5v47.5c0 4.9-2.4 7.4-7.3 7.4h-52.1c-.2 2.3-.5 5.1-.9 8.6-.9 7.4-4.8 13.6-11.7 18.6-6.4 4.6-13.4 7-21.1 7-10.3 0-18.7-2.3-25-6.9-7.1-5.2-10.7-12.7-10.7-22.7v-10c1.4-2.9 4-6.1 8.1-9.7 3.7-3.4 7.2-5.8 10.4-7.3v19.5c0 10.4 5.3 15.7 15.8 15.7 4.7 0 8.7-1.4 11.8-4.3 3.1-2.9 4.6-6.7 4.6-11.4v-25.2c1.7-3.1 4.5-6.3 8.4-9.7 3.9-3.4 7.5-5.9 10.8-7.4v21h39.7v-13.5c1.5-3 4.3-6.3 8.4-9.8 4-3.3 7.5-5.8 10.8-7.4zm-5.8 71.5c-2-2-4.4-3-7.1-3-2.8 0-5.3 1-7.3 2.9s-3 4.3-3 7.2c0 2.9 1 5.3 3 7.3 2 1.9 4.4 2.9 7.3 2.9 2.9 0 5.3-1 7.2-2.9 1.9-2 2.9-4.4 2.9-7.3 0-2.7-1-5.1-3-7.1zm-28.9 0c-2-2-4.3-3-7-3-2.8 0-5.2 1-7.2 3s-3 4.4-3 7.1c0 2.9 1 5.3 2.9 7.3 1.9 1.9 4.4 2.9 7.3 2.9 2.8 0 5.2-1 7.1-2.9 1.9-2 2.9-4.4 2.9-7.3 0-2.7-1-5.1-3-7.1zm83.9-90c-1.9-1.9-4.3-2.9-7.1-2.9-2.9 0-5.4 1-7.3 2.9-1.9 1.9-2.9 4.3-2.9 7.2 0 2.9 1 5.3 2.9 7.3 1.9 1.9 4.4 2.9 7.3 2.9 2.8 0 5.1-1 7.1-3 1.9-2 2.9-4.4 2.9-7.2.1-2.9-.9-5.3-2.9-7.2zm48.8-36.4v105.2c0 3.1-2 4.6-6.1 4.6h-40.2c-2.1 16.9-9.3 25.3-21.7 25.3-5.3 0-9.9-1.9-13.7-5.8-3.9-3.8-5.8-8.4-5.8-13.6 0-.3 0-1.3.2-3 2.4 1.6 5.5 2.5 9.3 2.5 6.4 0 9.7-1.8 9.7-5.4v-24.2c2.1-3.6 5.2-7.2 9.3-10.9 4.5-3.9 8.6-6.3 12.2-7.2l.1 17.1c0 .6.7.9 2 .9l19.2.1h1.6c3.3-.4 5-2.1 5-5v-63.3c1.6-3.1 4.4-6.4 8.4-9.9 3.4-3.3 7-5.7 10.5-7.4zm39.1 109.9h-19.2v-92.6c1.4-2.8 4.2-6 8.5-9.7 3.9-3.4 7.5-5.9 10.8-7.5v109.8zm270.6-27.5c-3.2-2.6-6.6-7.2-10.1-13.8-4.3-8.2-7.3-13.3-8.9-15.3-3.7-4.8-8-7.2-12.7-7.2-4.1 0-7.4 1.7-10.1 5-2.4 3.1-3.6 6.7-3.6 10.8 0 5.3.9 8.9 2.8 10.9 3-1.9 5.3-2.9 6.8-2.9.5 0 1.1.1 1.8.2 1.7.3 3.5 2.5 5.3 6.7.4 1 1.5 4 3.2 8.8h-41.1c-1.5-2.8-4-5.8-7.5-8.9l-14.2-12.4c-.8-.7-1.5-1-2-1-.3 0-3 2.5-8.2 7.6-9.1 8.3-14.2 13.2-15.3 14.8h-23.4c1.5-1.5 2.3-5 2.3-10.3v-6.7c0-9.2-5.3-13.9-15.9-14h-8.9c-17.4-.2-26.4-.5-27-1-1.5-1.8-2.9-3.6-4.4-5.3-1.2-1.3-3.5-1.9-6.8-1.9v27.5h33.3c5.4 0 8.1 1.5 8.1 4.6 0 4.7-1.5 7-4.4 7h-46.6v24.2h94.8c4.7 8.6 11.9 12.9 21.7 12.9 10.1 0 17.6-4.3 22.5-12.9h70.5l5-24.3c-3.6-1.1-5.9-2.2-7-3.1zm-91 20.8c-3.7 0-5.5-1.9-5.5-5.8 0-3.8 1.8-5.7 5.5-5.7 1.5 0 2.8.6 3.9 1.7 1.2 1.2 1.7 2.5 1.7 4 .1 3.9-1.8 5.8-5.6 5.8zm131.3-115.9c0 .8 0 1.6-.1 2.4h-25.5v-9.3h2v-8.1c0-3.9 1.6-5.9 4.8-5.9h16.6c.8 0 1.3 2 1.3 6 0 2.2-.4 3.6-1.2 4.1h-7.9c-.6 0-.9.6-.9 1.7 0 1.4.4 2.1 1.2 2.1h7.4c1.5.1 2.3 2.4 2.3 7zm-1 122.6h-19.2v-92.6c1.4-2.8 4.2-6 8.5-9.7 3.9-3.4 7.5-5.9 10.8-7.5v109.8z"/><path class="st1" d="M-763.4 924.2l.3-.1c.6 0 1.1-.1 1.5-.3.3-.2.6-.6.8-1.1.2-.5.3-1.2.3-2.1v-15.3c0-3.5.8-6.2 2.4-8.2 1.6-2 3.9-3 7-3 1.4 0 2.7.3 3.8.8 1.1.5 2.1 1.3 2.9 2.2.8 1 1.4 2.1 1.8 3.5.4 1.4.6 2.9.6 4.7v15.3c0 .9.1 1.6.3 2.1.2.5.4.9.8 1.1.3.2.8.3 1.5.3h.3v2.1h-9.5v-2.2c.7 0 1.3-.1 1.6-.3.4-.2.7-.6.9-1.1.2-.5.3-1.2.3-2.1v-8.8h-11.2v8.8c0 .9.1 1.6.3 2.1.2.5.5.9.9 1.1.4.2.9.3 1.6.3v2.1h-9.5v-1.9zm6.6-14.4h11.2v-5.9c0-1.4-.2-2.6-.5-3.6s-.8-1.7-1.3-2.3c-.5-.6-1.1-1-1.8-1.2-.7-.2-1.3-.3-2-.3s-1.3.1-2 .3c-.7.2-1.3.6-1.8 1.2s-1 1.3-1.3 2.3c-.3 1-.5 2.1-.5 3.6v5.9zm28.3-13.9c-.6 0-1.1.1-1.5.3-.3.2-.6.6-.8 1.1-.2.5-.3 1.2-.3 2.1v6.7c1.2-.9 2.6-1.4 4.3-1.4 1.4 0 2.6.3 3.6.8s1.8 1.3 2.4 2.2c.6 1 1.1 2.1 1.4 3.5.3 1.4.4 2.9.4 4.7v4.7c0 .9.1 1.6.3 2.1.2.5.4.9.8 1.1.3.2.8.3 1.5.3l.3.1v1.8h-9.5v-1.9c.7 0 1.3-.1 1.6-.3.4-.2.7-.6.9-1.1.2-.5.3-1.2.3-2.1v-6c0-1.4-.1-2.6-.3-3.6-.2-1-.4-1.7-.8-2.3-.3-.6-.8-1-1.3-1.2-.5-.2-1.1-.3-1.8-.3-.6 0-1.2.1-1.8.3-.5.2-1 .6-1.4 1.1-.4.5-.7 1.3-.9 2.2-.2.9-.3 2-.4 3.4v6.4c0 .9.1 1.6.3 2.1.2.5.5.9.9 1.1.4.2.9.3 1.6.3v1.9h-9.5v-1.9h.3c.6 0 1.1-.1 1.5-.3.3-.2.6-.6.8-1.1.2-.5.3-1.2.3-2.1v-21.2c0-.9-.1-1.6-.3-2.1-.2-.5-.5-.9-.9-1.1-.4-.2-.9-.3-1.6-.3v-1.9h9.5v1.9h.1zm40.4 15.1c-.2-1-.4-1.7-.8-2.3-.3-.6-.8-1-1.3-1.2-.5-.2-1.1-.3-1.8-.3s-1.3.1-1.8.3c-.6.2-1 .6-1.4 1.2-.4.6-.7 1.3-.9 2.3-.2 1-.3 2.2-.3 3.6v6.2c0 .9.1 1.6.3 2.1.2.5.4.9.8 1.1.3.2.8.3 1.5.3l.3.1v1.8h-9.5v-1.9c.7 0 1.2-.1 1.6-.3.4-.2.7-.5.9-1 .2-.5.3-1.1.4-1.8.1-.8.1-1.7.1-2.8v-3.7c0-1.4-.1-2.6-.3-3.5-.2-.9-.4-1.7-.8-2.3-.3-.6-.8-1-1.3-1.2-.5-.2-1.1-.3-1.7-.3-.7 0-1.3.1-1.8.3-.6.2-1 .6-1.4 1.2-.4.6-.7 1.3-.9 2.3-.2 1-.3 2.2-.3 3.6v6c0 .9.1 1.6.3 2.1.2.5.5.9.9 1.1.4.2.9.3 1.6.3v1.9h-9.5v-1.9h.3c.6 0 1.1-.1 1.5-.3.3-.2.6-.6.8-1.1.2-.5.3-1.2.3-2.1v-4.8c0-3.5.7-6.2 2.1-8.2 1.4-2 3.4-3 5.9-3 1.5 0 2.7.3 3.7.8s1.8 1.3 2.4 2.3c.7-1 1.5-1.9 2.5-2.4 1-.6 2.2-.8 3.5-.8 1.4 0 2.6.3 3.6.8s1.8 1.3 2.4 2.2c.6 1 1.1 2.1 1.4 3.5.3 1.4.4 2.9.4 4.7v4.7c0 .9.1 1.6.3 2.1.2.5.4.9.8 1.1.3.2.8.3 1.5.3h.3v2h-9.5v-2.1c.7 0 1.3-.1 1.6-.3.4-.2.7-.6.9-1.1.2-.5.3-1.2.3-2.1v-6c.4-1.4.3-2.6.1-3.5zm11.6 5.9c.1.8.2 1.6.4 2.4.2.8.5 1.6.9 2.3.4.7.9 1.2 1.6 1.7.6.5 1.4.7 2.4.7.8 0 1.9-.2 3.2-.7l.3 1.4c-.7.4-1.3.8-2 1.1-.7.3-1.4.5-2.1.4-1.1 0-2.2-.3-3.1-.8-.9-.5-1.8-1.2-2.5-2.2-.7-.9-1.3-2-1.7-3.3-.4-1.3-.6-2.7-.7-4.2 0-1.4.2-2.8.6-4 .4-1.3.9-2.4 1.6-3.4s1.5-1.7 2.4-2.3c.9-.6 2-.9 3.1-1 1.2 0 2.2.3 3.2.9 1 .6 1.8 1.4 2.5 2.3.7 1 1.2 2.1 1.6 3.4.4 1.3.5 2.6.5 4v1.3h-12.2zm2.4-8.8c-.5.4-.9.9-1.2 1.5-.3.6-.6 1.3-.8 2.1-.2.8-.3 1.6-.4 2.5h8.4c-.2-2.3-.6-4-1.4-5.1-.7-1-1.7-1.6-2.9-1.6h-.1c-.5.1-1.1.3-1.6.6zm28.5-11.7c-.4.2-.7.6-.9 1.1-.2.5-.3 1.2-.3 2.1v15.8c0 1.6-.2 3.1-.5 4.4-.3 1.3-.8 2.4-1.5 3.3-.7.9-1.5 1.6-2.5 2.1s-2.3.7-3.8.7c-1.4 0-2.6-.2-3.6-.7-1-.5-1.8-1.2-2.4-2.1-.6-.9-1.1-2-1.4-3.3-.3-1.3-.5-2.8-.5-4.4 0-1.6.2-3.1.5-4.5.3-1.3.8-2.5 1.4-3.4.6-1 1.5-1.7 2.4-2.2 1-.5 2.2-.8 3.6-.8 1 0 1.8.1 2.5.4.7.3 1.4.6 2 1v-6.5c0-.9-.1-1.6-.3-2.1-.1-.5-.4-.9-.7-1.1-.3-.2-.8-.3-1.5-.3h-.3v-1.9h9.4v1.9c-.6.2-1.2.3-1.6.5zm-5.2 14.7c-.2-1-.5-1.8-.9-2.4-.4-.6-.9-1-1.4-1.3-.6-.3-1.2-.4-1.8-.4-.7 0-1.3.1-1.8.3-.6.3-1 .7-1.4 1.3-.4.6-.7 1.4-.9 2.4-.2 1-.3 2.2-.3 3.6v1.5c0 1.4.1 2.6.3 3.6.2 1 .5 1.7.9 2.3.4.6.9 1 1.4 1.2.6.2 1.2.3 1.8.3.7 0 1.3-.1 1.8-.3.6-.2 1-.6 1.4-1.2.4-.6.7-1.3.9-2.3.2-1 .3-2.1.3-3.6v-1.5c0-1.3-.1-2.5-.3-3.5zm37.6 15h-6.8c-3 0-5.3-1-6.8-3-1.6-2-2.4-4.7-2.4-8.1v-15.4c0-.9-.1-1.6-.3-2.1-.2-.5-.4-.9-.8-1.1-.3-.2-.8-.3-1.5-.3l-.3-.1v-1.8h18.9v2.3h-10.2c-.5.1-.9.3-1.2.6-.3.3-.5.7-.6 1.2-.1.5-.2 1.2-.2 2v7.7h8.7v2h-8.7v6.4c0 1.4.2 2.6.5 3.5.3.9.8 1.7 1.3 2.3.5.6 1.1 1 1.8 1.2.7.2 1.3.3 2 .3h6.8v2.4zm11.4 0h-9.5v-1.9c.7 0 1.3-.1 1.6-.3.4-.2.7-.6.9-1.1.2-.5.3-1.2.3-2.1v-26.5h3.7v26.5c0 .9.1 1.6.3 2.1.2.5.4.9.8 1.1.3.2.8.3 1.5.3h.3v1.9zm8.2-13.1v3.2h-8v-3.2h8zm.2 13.1l-.3-1.3.4-.7s.8-1.3 1.4-2.3c.6-1 1.3-2.2 2.1-3.5.8-1.4 1.6-2.8 2.5-4.3.9-1.5 1.8-3.1 2.8-4.7.9-1.6 1.9-3.2 2.8-4.7.9-1.5 1.7-3 2.5-4.3.8-1.3 1.5-2.5 2.1-3.5h-12.5c-.5 0-.9.1-1.2.2-.3.1-.4.4-.6.7-.1.3-.2.7-.2 1.2v1.8h-1.4v-6.4h21v2c-.2.3-.7 1-1.3 2-.6 1-1.3 2.3-2.2 3.7-.9 1.5-1.8 3.1-2.9 5-1.1 1.8-2.2 3.7-3.3 5.7l-3.3 5.8c-1.1 1.9-2.1 3.7-3.1 5.3h12.5c.5 0 .9-.1 1.2-.2.3-.2.4-.4.5-.7.1-.3.2-.7.2-1.2v-1.8h1.4v6.4l-21.1-.2zm26.8-9.2c.1.8.2 1.6.4 2.4.2.8.5 1.6.9 2.3.4.7.9 1.2 1.6 1.7.6.5 1.4.7 2.4.7.8 0 1.9-.2 3.2-.7l.3 1.4c-.7.4-1.3.8-2 1.1-.7.3-1.4.5-2.1.4-1.1 0-2.2-.3-3.1-.8-.9-.5-1.8-1.2-2.5-2.2-.7-.9-1.3-2-1.7-3.3-.4-1.3-.6-2.7-.7-4.2 0-1.4.2-2.8.6-4 .4-1.3.9-2.4 1.6-3.4.7-1 1.5-1.7 2.4-2.3.9-.6 2-.9 3.1-1 1.2 0 2.2.3 3.2.9 1 .6 1.8 1.4 2.5 2.3.7 1 1.2 2.1 1.6 3.4.4 1.3.5 2.6.5 4v1.3h-12.2zm2.5-8.8c-.5.4-.9.9-1.2 1.5-.3.6-.6 1.3-.8 2.1-.2.8-.3 1.6-.4 2.5h8.4c-.2-2.3-.6-4-1.4-5.1-.7-1-1.7-1.6-2.9-1.6h-.1c-.6.1-1.2.3-1.6.6zm17.7 9.3v3.3c0 .9.1 1.6.3 2.1.2.5.4.9.8 1.1.3.2.8.3 1.5.3h.3v1.9h-9.5v-1.9c.7 0 1.3-.1 1.6-.3.4-.2.7-.6.9-1.1.2-.5.3-1.2.3-2.1v-10.4c0-.9-.1-1.6-.3-2.1-.2-.5-.4-.9-.8-1.1-.3-.2-.8-.3-1.5-.3h-.3v-1.9h9.5v1.9c-.7 0-1.3.1-1.6.3-.4.2-.7.6-.9 1.1-.2.5-.3 1.2-.3 2.1v7.1zm1.2-20c0 1.8-1.4 3.2-3.2 3.2-1.8 0-3.2-1.4-3.2-3.2 0-1.8 1.4-3.2 3.2-3.2 1.8 0 3.2 1.4 3.2 3.2zm17.9 13.7c-.2-1-.4-1.7-.8-2.3-.3-.6-.8-1-1.3-1.2-.5-.2-1.1-.3-1.8-.3s-1.3.1-1.8.3c-.6.2-1 .6-1.4 1.2-.4.6-.7 1.3-.9 2.3-.2 1-.3 2.2-.3 3.6v6c0 .9.1 1.6.3 2.1.2.5.5.9.9 1.1.4.2.9.3 1.6.3v1.9h-9.5v-1.9h.3c.6 0 1.1-.1 1.5-.3.3-.2.6-.6.8-1.1.2-.5.3-1.2.3-2.1v-4.7c0-3.5.7-6.2 2.1-8.2 1.4-2 3.4-3 5.9-3 1.4 0 2.6.3 3.6.8s1.8 1.3 2.4 2.2c.6 1 1.1 2.1 1.4 3.5.3 1.4.4 2.9.4 4.7v4.7c0 .9.1 1.6.3 2.1.2.5.4.9.8 1.1.3.2.8.3 1.5.3l.3.1v1.8h-9.5v-1.9c.7 0 1.3-.1 1.6-.3.4-.2.7-.6.9-1.1.2-.5.3-1.2.3-2.1v-6c.4-1.4.3-2.6.1-3.6z"/></svg>