<?xml version="1.0" encoding="utf-8"?>
<!-- Generator: Adobe Illustrator 19.1.0, SVG Export Plug-In . SVG Version: 6.00 Build 0)  -->
<svg version="1.1" id="Layer_1" xmlns="http://www.w3.org/2000/svg" xmlns:xlink="http://www.w3.org/1999/xlink" x="0px" y="0px"
	 viewBox="-49 141 512 512" style="enable-background:new -49 141 512 512;" xml:space="preserve">
<path d="M427.3,260.3c-16.2,7.2-33.6,12-51.9,14.2c18.7-11.2,33-28.9,39.7-50c-17.5,10.4-36.8,17.9-57.4,21.9
	c-16.5-17.6-40-28.5-66-28.5c-49.9,0-90.4,40.5-90.4,90.4c0,7.1,0.8,14,2.3,20.6c-75.1-3.8-141.7-39.8-186.3-94.5
	C9.6,247.9,5.1,263.4,5.1,280c0,31.4,16,59,40.2,75.2c-14.8-0.5-28.8-4.5-40.9-11.3c0,0.4,0,0.8,0,1.1c0,43.8,31.2,80.3,72.5,88.6
	c-7.6,2.1-15.6,3.2-23.8,3.2c-5.8,0-11.5-0.6-17-1.6c11.5,35.9,44.9,62.1,84.4,62.8c-30.9,24.2-69.9,38.7-112.3,38.7
	c-7.3,0-14.5-0.4-21.6-1.3c40,25.6,87.5,40.6,138.6,40.6c166.3,0,257.2-137.7,257.2-257.2c0-3.9-0.1-7.8-0.3-11.7
	C399.9,294.4,415.2,278.5,427.3,260.3z"/>
</svg>
