<svg xmlns="http://www.w3.org/2000/svg" viewBox="-49 141 512 512" enable-background="new -49 141 512 512"><path d="M427.3 260.3c-16.2 7.2-33.6 12-51.9 14.2 18.7-11.2 33-28.9 39.7-50-17.5 10.4-36.8 17.9-57.4 21.9-16.5-17.6-40-28.5-66-28.5-49.9 0-90.4 40.5-90.4 90.4 0 7.1.8 14 2.3 20.6-75.1-3.8-141.7-39.8-186.3-94.5-7.7 13.5-12.2 29-12.2 45.6 0 31.4 16 59 40.2 75.2-14.8-.5-28.8-4.5-40.9-11.3v1.1c0 43.8 31.2 80.3 72.5 88.6-7.6 2.1-15.6 3.2-23.8 3.2-5.8 0-11.5-.6-17-1.6 11.5 35.9 44.9 62.1 84.4 62.8-30.9 24.2-69.9 38.7-112.3 38.7-7.3 0-14.5-.4-21.6-1.3 40 25.6 87.5 40.6 138.6 40.6 166.3 0 257.2-137.7 257.2-257.2 0-3.9-.1-7.8-.3-11.7 17.8-12.7 33.1-28.6 45.2-46.8z"/></svg>